<?xml version="1.0" encoding="utf-8" standalone="no"?>
<!DOCTYPE svg PUBLIC "-//W3C//DTD SVG 1.1//EN"
  "http://www.w3.org/Graphics/SVG/1.1/DTD/svg11.dtd">
<svg xmlns:xlink="http://www.w3.org/1999/xlink" width="565.530579pt" height="422.050156pt" viewBox="0 0 565.530579 422.050156" xmlns="http://www.w3.org/2000/svg" version="1.1">
 <metadata>
  <rdf:RDF xmlns:dc="http://purl.org/dc/elements/1.1/" xmlns:cc="http://creativecommons.org/ns#" xmlns:rdf="http://www.w3.org/1999/02/22-rdf-syntax-ns#">
   <cc:Work>
    <dc:type rdf:resource="http://purl.org/dc/dcmitype/StillImage"/>
    <dc:date>2024-05-04T17:37:37.768077</dc:date>
    <dc:format>image/svg+xml</dc:format>
    <dc:creator>
     <cc:Agent>
      <dc:title>Matplotlib v3.8.4, https://matplotlib.org/</dc:title>
     </cc:Agent>
    </dc:creator>
   </cc:Work>
  </rdf:RDF>
 </metadata>
 <defs>
  <style type="text/css">*{stroke-linejoin: round; stroke-linecap: butt}</style>
 </defs>
 <g id="figure_1">
  <g id="patch_1">
   <path d="M 0 422.050156 
L 565.530579 422.050156 
L 565.530579 0 
L 0 0 
z
" style="fill: #ffffff"/>
  </g>
  <g id="axes_1">
   <g id="patch_2">
    <path d="M 55.557031 172.498281 
L 288.040375 172.498281 
L 288.040375 21.558281 
L 55.557031 21.558281 
z
" style="fill: #ffffff"/>
   </g>
   <g id="PolyCollection_1">
    <path d="M 66.124456 145.033231 
L 66.124456 137.578236 
L 70.437691 87.946004 
L 74.750925 74.554517 
L 79.06416 60.899606 
L 83.377394 53.269313 
L 87.690629 48.723914 
L 92.003863 44.265897 
L 96.317098 42.516008 
L 100.630333 39.961945 
L 104.943567 39.002204 
L 109.256802 37.571978 
L 113.570036 36.899237 
L 117.883271 35.640085 
L 122.196506 35.115296 
L 126.50974 34.614904 
L 130.822975 34.305876 
L 135.136209 33.688592 
L 139.449444 34.02876 
L 143.762679 32.874269 
L 148.075913 33.256525 
L 152.389148 32.991102 
L 156.702382 32.445349 
L 161.015617 32.274364 
L 165.328851 32.457791 
L 169.642086 31.883049 
L 173.955321 32.162996 
L 178.268555 32.236915 
L 182.58179 31.696153 
L 186.895024 31.924245 
L 191.208259 31.512224 
L 195.521494 31.463694 
L 199.834728 31.652227 
L 204.147963 31.785758 
L 208.461197 31.267555 
L 212.774432 31.361471 
L 217.087666 31.110772 
L 221.400901 30.997928 
L 225.714136 30.74954 
L 230.02737 30.961677 
L 234.340605 30.904272 
L 238.653839 30.836356 
L 242.967074 30.549656 
L 247.280309 30.945495 
L 251.593543 30.651613 
L 255.906778 30.741137 
L 260.220012 30.743699 
L 264.533247 30.571161 
L 268.846481 30.569269 
L 273.159716 30.41965 
L 277.472951 30.697569 
L 277.472951 30.944624 
L 277.472951 30.944624 
L 273.159716 30.620606 
L 268.846481 30.83624 
L 264.533247 30.884022 
L 260.220012 31.018297 
L 255.906778 31.093909 
L 251.593543 30.888309 
L 247.280309 31.336621 
L 242.967074 30.803256 
L 238.653839 31.112649 
L 234.340605 31.1996 
L 230.02737 31.384724 
L 225.714136 31.03291 
L 221.400901 31.28711 
L 217.087666 31.45478 
L 212.774432 31.835239 
L 208.461197 31.584355 
L 204.147963 32.243728 
L 199.834728 31.979863 
L 195.521494 31.759313 
L 191.208259 31.906559 
L 186.895024 32.330237 
L 182.58179 31.991456 
L 178.268555 32.739307 
L 173.955321 32.591152 
L 169.642086 32.359745 
L 165.328851 32.991799 
L 161.015617 32.625885 
L 156.702382 32.779245 
L 152.389148 33.504572 
L 148.075913 33.677452 
L 143.762679 33.39641 
L 139.449444 34.588303 
L 135.136209 34.361598 
L 130.822975 34.89267 
L 126.50974 35.28785 
L 122.196506 36.09068 
L 117.883271 36.550613 
L 113.570036 37.669989 
L 109.256802 38.288782 
L 104.943567 40.335764 
L 100.630333 41.371765 
L 96.317098 44.413377 
L 92.003863 46.59361 
L 87.690629 50.697123 
L 83.377394 55.659989 
L 79.06416 64.325822 
L 74.750925 80.133676 
L 70.437691 92.79203 
L 66.124456 145.033231 
z
" clip-path="url(#pccc1f510cb)" style="fill: #1f77b4; fill-opacity: 0.3"/>
   </g>
   <g id="matplotlib.axis_1">
    <g id="xtick_1">
     <g id="line2d_1">
      <defs>
       <path id="m25fa12604d" d="M 0 0 
L 0 3.5 
" style="stroke: #000000; stroke-width: 0.8"/>
      </defs>
      <g>
       <use xlink:href="#m25fa12604d" x="61.811221" y="172.498281" style="stroke: #000000; stroke-width: 0.8"/>
      </g>
     </g>
     <g id="text_1">
      <!-- 0 -->
      <g transform="translate(58.311846 187.856562) scale(0.11 -0.11)">
       <defs>
        <path id="DejaVuSans-30" d="M 2034 4250 
Q 1547 4250 1301 3770 
Q 1056 3291 1056 2328 
Q 1056 1369 1301 889 
Q 1547 409 2034 409 
Q 2525 409 2770 889 
Q 3016 1369 3016 2328 
Q 3016 3291 2770 3770 
Q 2525 4250 2034 4250 
z
M 2034 4750 
Q 2819 4750 3233 4129 
Q 3647 3509 3647 2328 
Q 3647 1150 3233 529 
Q 2819 -91 2034 -91 
Q 1250 -91 836 529 
Q 422 1150 422 2328 
Q 422 3509 836 4129 
Q 1250 4750 2034 4750 
z
" transform="scale(0.015625)"/>
       </defs>
       <use xlink:href="#DejaVuSans-30"/>
      </g>
     </g>
    </g>
    <g id="xtick_2">
     <g id="line2d_2">
      <g>
       <use xlink:href="#m25fa12604d" x="104.943567" y="172.498281" style="stroke: #000000; stroke-width: 0.8"/>
      </g>
     </g>
     <g id="text_2">
      <!-- 100 -->
      <g transform="translate(94.445442 187.856562) scale(0.11 -0.11)">
       <defs>
        <path id="DejaVuSans-31" d="M 794 531 
L 1825 531 
L 1825 4091 
L 703 3866 
L 703 4441 
L 1819 4666 
L 2450 4666 
L 2450 531 
L 3481 531 
L 3481 0 
L 794 0 
L 794 531 
z
" transform="scale(0.015625)"/>
       </defs>
       <use xlink:href="#DejaVuSans-31"/>
       <use xlink:href="#DejaVuSans-30" x="63.623047"/>
       <use xlink:href="#DejaVuSans-30" x="127.246094"/>
      </g>
     </g>
    </g>
    <g id="xtick_3">
     <g id="line2d_3">
      <g>
       <use xlink:href="#m25fa12604d" x="148.075913" y="172.498281" style="stroke: #000000; stroke-width: 0.8"/>
      </g>
     </g>
     <g id="text_3">
      <!-- 200 -->
      <g transform="translate(137.577788 187.856562) scale(0.11 -0.11)">
       <defs>
        <path id="DejaVuSans-32" d="M 1228 531 
L 3431 531 
L 3431 0 
L 469 0 
L 469 531 
Q 828 903 1448 1529 
Q 2069 2156 2228 2338 
Q 2531 2678 2651 2914 
Q 2772 3150 2772 3378 
Q 2772 3750 2511 3984 
Q 2250 4219 1831 4219 
Q 1534 4219 1204 4116 
Q 875 4013 500 3803 
L 500 4441 
Q 881 4594 1212 4672 
Q 1544 4750 1819 4750 
Q 2544 4750 2975 4387 
Q 3406 4025 3406 3419 
Q 3406 3131 3298 2873 
Q 3191 2616 2906 2266 
Q 2828 2175 2409 1742 
Q 1991 1309 1228 531 
z
" transform="scale(0.015625)"/>
       </defs>
       <use xlink:href="#DejaVuSans-32"/>
       <use xlink:href="#DejaVuSans-30" x="63.623047"/>
       <use xlink:href="#DejaVuSans-30" x="127.246094"/>
      </g>
     </g>
    </g>
    <g id="xtick_4">
     <g id="line2d_4">
      <g>
       <use xlink:href="#m25fa12604d" x="191.208259" y="172.498281" style="stroke: #000000; stroke-width: 0.8"/>
      </g>
     </g>
     <g id="text_4">
      <!-- 300 -->
      <g transform="translate(180.710134 187.856562) scale(0.11 -0.11)">
       <defs>
        <path id="DejaVuSans-33" d="M 2597 2516 
Q 3050 2419 3304 2112 
Q 3559 1806 3559 1356 
Q 3559 666 3084 287 
Q 2609 -91 1734 -91 
Q 1441 -91 1130 -33 
Q 819 25 488 141 
L 488 750 
Q 750 597 1062 519 
Q 1375 441 1716 441 
Q 2309 441 2620 675 
Q 2931 909 2931 1356 
Q 2931 1769 2642 2001 
Q 2353 2234 1838 2234 
L 1294 2234 
L 1294 2753 
L 1863 2753 
Q 2328 2753 2575 2939 
Q 2822 3125 2822 3475 
Q 2822 3834 2567 4026 
Q 2313 4219 1838 4219 
Q 1578 4219 1281 4162 
Q 984 4106 628 3988 
L 628 4550 
Q 988 4650 1302 4700 
Q 1616 4750 1894 4750 
Q 2613 4750 3031 4423 
Q 3450 4097 3450 3541 
Q 3450 3153 3228 2886 
Q 3006 2619 2597 2516 
z
" transform="scale(0.015625)"/>
       </defs>
       <use xlink:href="#DejaVuSans-33"/>
       <use xlink:href="#DejaVuSans-30" x="63.623047"/>
       <use xlink:href="#DejaVuSans-30" x="127.246094"/>
      </g>
     </g>
    </g>
    <g id="xtick_5">
     <g id="line2d_5">
      <g>
       <use xlink:href="#m25fa12604d" x="234.340605" y="172.498281" style="stroke: #000000; stroke-width: 0.8"/>
      </g>
     </g>
     <g id="text_5">
      <!-- 400 -->
      <g transform="translate(223.84248 187.856562) scale(0.11 -0.11)">
       <defs>
        <path id="DejaVuSans-34" d="M 2419 4116 
L 825 1625 
L 2419 1625 
L 2419 4116 
z
M 2253 4666 
L 3047 4666 
L 3047 1625 
L 3713 1625 
L 3713 1100 
L 3047 1100 
L 3047 0 
L 2419 0 
L 2419 1100 
L 313 1100 
L 313 1709 
L 2253 4666 
z
" transform="scale(0.015625)"/>
       </defs>
       <use xlink:href="#DejaVuSans-34"/>
       <use xlink:href="#DejaVuSans-30" x="63.623047"/>
       <use xlink:href="#DejaVuSans-30" x="127.246094"/>
      </g>
     </g>
    </g>
    <g id="xtick_6">
     <g id="line2d_6">
      <g>
       <use xlink:href="#m25fa12604d" x="277.472951" y="172.498281" style="stroke: #000000; stroke-width: 0.8"/>
      </g>
     </g>
     <g id="text_6">
      <!-- 500 -->
      <g transform="translate(266.974826 187.856562) scale(0.11 -0.11)">
       <defs>
        <path id="DejaVuSans-35" d="M 691 4666 
L 3169 4666 
L 3169 4134 
L 1269 4134 
L 1269 2991 
Q 1406 3038 1543 3061 
Q 1681 3084 1819 3084 
Q 2600 3084 3056 2656 
Q 3513 2228 3513 1497 
Q 3513 744 3044 326 
Q 2575 -91 1722 -91 
Q 1428 -91 1123 -41 
Q 819 9 494 109 
L 494 744 
Q 775 591 1075 516 
Q 1375 441 1709 441 
Q 2250 441 2565 725 
Q 2881 1009 2881 1497 
Q 2881 1984 2565 2268 
Q 2250 2553 1709 2553 
Q 1456 2553 1204 2497 
Q 953 2441 691 2322 
L 691 4666 
z
" transform="scale(0.015625)"/>
       </defs>
       <use xlink:href="#DejaVuSans-35"/>
       <use xlink:href="#DejaVuSans-30" x="63.623047"/>
       <use xlink:href="#DejaVuSans-30" x="127.246094"/>
      </g>
     </g>
    </g>
    <g id="text_7">
     <!-- Number of labels -->
     <g transform="translate(124.739328 202.5025) scale(0.11 -0.11)">
      <defs>
       <path id="DejaVuSans-4e" d="M 628 4666 
L 1478 4666 
L 3547 763 
L 3547 4666 
L 4159 4666 
L 4159 0 
L 3309 0 
L 1241 3903 
L 1241 0 
L 628 0 
L 628 4666 
z
" transform="scale(0.015625)"/>
       <path id="DejaVuSans-75" d="M 544 1381 
L 544 3500 
L 1119 3500 
L 1119 1403 
Q 1119 906 1312 657 
Q 1506 409 1894 409 
Q 2359 409 2629 706 
Q 2900 1003 2900 1516 
L 2900 3500 
L 3475 3500 
L 3475 0 
L 2900 0 
L 2900 538 
Q 2691 219 2414 64 
Q 2138 -91 1772 -91 
Q 1169 -91 856 284 
Q 544 659 544 1381 
z
M 1991 3584 
L 1991 3584 
z
" transform="scale(0.015625)"/>
       <path id="DejaVuSans-6d" d="M 3328 2828 
Q 3544 3216 3844 3400 
Q 4144 3584 4550 3584 
Q 5097 3584 5394 3201 
Q 5691 2819 5691 2113 
L 5691 0 
L 5113 0 
L 5113 2094 
Q 5113 2597 4934 2840 
Q 4756 3084 4391 3084 
Q 3944 3084 3684 2787 
Q 3425 2491 3425 1978 
L 3425 0 
L 2847 0 
L 2847 2094 
Q 2847 2600 2669 2842 
Q 2491 3084 2119 3084 
Q 1678 3084 1418 2786 
Q 1159 2488 1159 1978 
L 1159 0 
L 581 0 
L 581 3500 
L 1159 3500 
L 1159 2956 
Q 1356 3278 1631 3431 
Q 1906 3584 2284 3584 
Q 2666 3584 2933 3390 
Q 3200 3197 3328 2828 
z
" transform="scale(0.015625)"/>
       <path id="DejaVuSans-62" d="M 3116 1747 
Q 3116 2381 2855 2742 
Q 2594 3103 2138 3103 
Q 1681 3103 1420 2742 
Q 1159 2381 1159 1747 
Q 1159 1113 1420 752 
Q 1681 391 2138 391 
Q 2594 391 2855 752 
Q 3116 1113 3116 1747 
z
M 1159 2969 
Q 1341 3281 1617 3432 
Q 1894 3584 2278 3584 
Q 2916 3584 3314 3078 
Q 3713 2572 3713 1747 
Q 3713 922 3314 415 
Q 2916 -91 2278 -91 
Q 1894 -91 1617 61 
Q 1341 213 1159 525 
L 1159 0 
L 581 0 
L 581 4863 
L 1159 4863 
L 1159 2969 
z
" transform="scale(0.015625)"/>
       <path id="DejaVuSans-65" d="M 3597 1894 
L 3597 1613 
L 953 1613 
Q 991 1019 1311 708 
Q 1631 397 2203 397 
Q 2534 397 2845 478 
Q 3156 559 3463 722 
L 3463 178 
Q 3153 47 2828 -22 
Q 2503 -91 2169 -91 
Q 1331 -91 842 396 
Q 353 884 353 1716 
Q 353 2575 817 3079 
Q 1281 3584 2069 3584 
Q 2775 3584 3186 3129 
Q 3597 2675 3597 1894 
z
M 3022 2063 
Q 3016 2534 2758 2815 
Q 2500 3097 2075 3097 
Q 1594 3097 1305 2825 
Q 1016 2553 972 2059 
L 3022 2063 
z
" transform="scale(0.015625)"/>
       <path id="DejaVuSans-72" d="M 2631 2963 
Q 2534 3019 2420 3045 
Q 2306 3072 2169 3072 
Q 1681 3072 1420 2755 
Q 1159 2438 1159 1844 
L 1159 0 
L 581 0 
L 581 3500 
L 1159 3500 
L 1159 2956 
Q 1341 3275 1631 3429 
Q 1922 3584 2338 3584 
Q 2397 3584 2469 3576 
Q 2541 3569 2628 3553 
L 2631 2963 
z
" transform="scale(0.015625)"/>
       <path id="DejaVuSans-20" transform="scale(0.015625)"/>
       <path id="DejaVuSans-6f" d="M 1959 3097 
Q 1497 3097 1228 2736 
Q 959 2375 959 1747 
Q 959 1119 1226 758 
Q 1494 397 1959 397 
Q 2419 397 2687 759 
Q 2956 1122 2956 1747 
Q 2956 2369 2687 2733 
Q 2419 3097 1959 3097 
z
M 1959 3584 
Q 2709 3584 3137 3096 
Q 3566 2609 3566 1747 
Q 3566 888 3137 398 
Q 2709 -91 1959 -91 
Q 1206 -91 779 398 
Q 353 888 353 1747 
Q 353 2609 779 3096 
Q 1206 3584 1959 3584 
z
" transform="scale(0.015625)"/>
       <path id="DejaVuSans-66" d="M 2375 4863 
L 2375 4384 
L 1825 4384 
Q 1516 4384 1395 4259 
Q 1275 4134 1275 3809 
L 1275 3500 
L 2222 3500 
L 2222 3053 
L 1275 3053 
L 1275 0 
L 697 0 
L 697 3053 
L 147 3053 
L 147 3500 
L 697 3500 
L 697 3744 
Q 697 4328 969 4595 
Q 1241 4863 1831 4863 
L 2375 4863 
z
" transform="scale(0.015625)"/>
       <path id="DejaVuSans-6c" d="M 603 4863 
L 1178 4863 
L 1178 0 
L 603 0 
L 603 4863 
z
" transform="scale(0.015625)"/>
       <path id="DejaVuSans-61" d="M 2194 1759 
Q 1497 1759 1228 1600 
Q 959 1441 959 1056 
Q 959 750 1161 570 
Q 1363 391 1709 391 
Q 2188 391 2477 730 
Q 2766 1069 2766 1631 
L 2766 1759 
L 2194 1759 
z
M 3341 1997 
L 3341 0 
L 2766 0 
L 2766 531 
Q 2569 213 2275 61 
Q 1981 -91 1556 -91 
Q 1019 -91 701 211 
Q 384 513 384 1019 
Q 384 1609 779 1909 
Q 1175 2209 1959 2209 
L 2766 2209 
L 2766 2266 
Q 2766 2663 2505 2880 
Q 2244 3097 1772 3097 
Q 1472 3097 1187 3025 
Q 903 2953 641 2809 
L 641 3341 
Q 956 3463 1253 3523 
Q 1550 3584 1831 3584 
Q 2591 3584 2966 3190 
Q 3341 2797 3341 1997 
z
" transform="scale(0.015625)"/>
       <path id="DejaVuSans-73" d="M 2834 3397 
L 2834 2853 
Q 2591 2978 2328 3040 
Q 2066 3103 1784 3103 
Q 1356 3103 1142 2972 
Q 928 2841 928 2578 
Q 928 2378 1081 2264 
Q 1234 2150 1697 2047 
L 1894 2003 
Q 2506 1872 2764 1633 
Q 3022 1394 3022 966 
Q 3022 478 2636 193 
Q 2250 -91 1575 -91 
Q 1294 -91 989 -36 
Q 684 19 347 128 
L 347 722 
Q 666 556 975 473 
Q 1284 391 1588 391 
Q 1994 391 2212 530 
Q 2431 669 2431 922 
Q 2431 1156 2273 1281 
Q 2116 1406 1581 1522 
L 1381 1569 
Q 847 1681 609 1914 
Q 372 2147 372 2553 
Q 372 3047 722 3315 
Q 1072 3584 1716 3584 
Q 2034 3584 2315 3537 
Q 2597 3491 2834 3397 
z
" transform="scale(0.015625)"/>
      </defs>
      <use xlink:href="#DejaVuSans-4e"/>
      <use xlink:href="#DejaVuSans-75" x="74.804688"/>
      <use xlink:href="#DejaVuSans-6d" x="138.183594"/>
      <use xlink:href="#DejaVuSans-62" x="235.595703"/>
      <use xlink:href="#DejaVuSans-65" x="299.072266"/>
      <use xlink:href="#DejaVuSans-72" x="360.595703"/>
      <use xlink:href="#DejaVuSans-20" x="401.708984"/>
      <use xlink:href="#DejaVuSans-6f" x="433.496094"/>
      <use xlink:href="#DejaVuSans-66" x="494.677734"/>
      <use xlink:href="#DejaVuSans-20" x="529.882812"/>
      <use xlink:href="#DejaVuSans-6c" x="561.669922"/>
      <use xlink:href="#DejaVuSans-61" x="589.453125"/>
      <use xlink:href="#DejaVuSans-62" x="650.732422"/>
      <use xlink:href="#DejaVuSans-65" x="714.208984"/>
      <use xlink:href="#DejaVuSans-6c" x="775.732422"/>
      <use xlink:href="#DejaVuSans-73" x="803.515625"/>
     </g>
    </g>
   </g>
   <g id="matplotlib.axis_2">
    <g id="ytick_1">
     <g id="line2d_7">
      <path d="M 55.557031 170.581489 
L 288.040375 170.581489 
" clip-path="url(#pccc1f510cb)" style="fill: none; stroke: #b0b0b0; stroke-width: 0.8; stroke-linecap: square"/>
     </g>
     <g id="line2d_8">
      <defs>
       <path id="me2fbff8e5a" d="M 0 0 
L -3.5 0 
" style="stroke: #000000; stroke-width: 0.8"/>
      </defs>
      <g>
       <use xlink:href="#me2fbff8e5a" x="55.557031" y="170.581489" style="stroke: #000000; stroke-width: 0.8"/>
      </g>
     </g>
     <g id="text_8">
      <!-- 50 -->
      <g transform="translate(34.559531 174.76063) scale(0.11 -0.11)">
       <use xlink:href="#DejaVuSans-35"/>
       <use xlink:href="#DejaVuSans-30" x="63.623047"/>
      </g>
     </g>
    </g>
    <g id="ytick_2">
     <g id="line2d_9">
      <path d="M 55.557031 141.361252 
L 288.040375 141.361252 
" clip-path="url(#pccc1f510cb)" style="fill: none; stroke: #b0b0b0; stroke-width: 0.8; stroke-linecap: square"/>
     </g>
     <g id="line2d_10">
      <g>
       <use xlink:href="#me2fbff8e5a" x="55.557031" y="141.361252" style="stroke: #000000; stroke-width: 0.8"/>
      </g>
     </g>
     <g id="text_9">
      <!-- 60 -->
      <g transform="translate(34.559531 145.540393) scale(0.11 -0.11)">
       <defs>
        <path id="DejaVuSans-36" d="M 2113 2584 
Q 1688 2584 1439 2293 
Q 1191 2003 1191 1497 
Q 1191 994 1439 701 
Q 1688 409 2113 409 
Q 2538 409 2786 701 
Q 3034 994 3034 1497 
Q 3034 2003 2786 2293 
Q 2538 2584 2113 2584 
z
M 3366 4563 
L 3366 3988 
Q 3128 4100 2886 4159 
Q 2644 4219 2406 4219 
Q 1781 4219 1451 3797 
Q 1122 3375 1075 2522 
Q 1259 2794 1537 2939 
Q 1816 3084 2150 3084 
Q 2853 3084 3261 2657 
Q 3669 2231 3669 1497 
Q 3669 778 3244 343 
Q 2819 -91 2113 -91 
Q 1303 -91 875 529 
Q 447 1150 447 2328 
Q 447 3434 972 4092 
Q 1497 4750 2381 4750 
Q 2619 4750 2861 4703 
Q 3103 4656 3366 4563 
z
" transform="scale(0.015625)"/>
       </defs>
       <use xlink:href="#DejaVuSans-36"/>
       <use xlink:href="#DejaVuSans-30" x="63.623047"/>
      </g>
     </g>
    </g>
    <g id="ytick_3">
     <g id="line2d_11">
      <path d="M 55.557031 112.141015 
L 288.040375 112.141015 
" clip-path="url(#pccc1f510cb)" style="fill: none; stroke: #b0b0b0; stroke-width: 0.8; stroke-linecap: square"/>
     </g>
     <g id="line2d_12">
      <g>
       <use xlink:href="#me2fbff8e5a" x="55.557031" y="112.141015" style="stroke: #000000; stroke-width: 0.8"/>
      </g>
     </g>
     <g id="text_10">
      <!-- 70 -->
      <g transform="translate(34.559531 116.320156) scale(0.11 -0.11)">
       <defs>
        <path id="DejaVuSans-37" d="M 525 4666 
L 3525 4666 
L 3525 4397 
L 1831 0 
L 1172 0 
L 2766 4134 
L 525 4134 
L 525 4666 
z
" transform="scale(0.015625)"/>
       </defs>
       <use xlink:href="#DejaVuSans-37"/>
       <use xlink:href="#DejaVuSans-30" x="63.623047"/>
      </g>
     </g>
    </g>
    <g id="ytick_4">
     <g id="line2d_13">
      <path d="M 55.557031 82.920779 
L 288.040375 82.920779 
" clip-path="url(#pccc1f510cb)" style="fill: none; stroke: #b0b0b0; stroke-width: 0.8; stroke-linecap: square"/>
     </g>
     <g id="line2d_14">
      <g>
       <use xlink:href="#me2fbff8e5a" x="55.557031" y="82.920779" style="stroke: #000000; stroke-width: 0.8"/>
      </g>
     </g>
     <g id="text_11">
      <!-- 80 -->
      <g transform="translate(34.559531 87.099919) scale(0.11 -0.11)">
       <defs>
        <path id="DejaVuSans-38" d="M 2034 2216 
Q 1584 2216 1326 1975 
Q 1069 1734 1069 1313 
Q 1069 891 1326 650 
Q 1584 409 2034 409 
Q 2484 409 2743 651 
Q 3003 894 3003 1313 
Q 3003 1734 2745 1975 
Q 2488 2216 2034 2216 
z
M 1403 2484 
Q 997 2584 770 2862 
Q 544 3141 544 3541 
Q 544 4100 942 4425 
Q 1341 4750 2034 4750 
Q 2731 4750 3128 4425 
Q 3525 4100 3525 3541 
Q 3525 3141 3298 2862 
Q 3072 2584 2669 2484 
Q 3125 2378 3379 2068 
Q 3634 1759 3634 1313 
Q 3634 634 3220 271 
Q 2806 -91 2034 -91 
Q 1263 -91 848 271 
Q 434 634 434 1313 
Q 434 1759 690 2068 
Q 947 2378 1403 2484 
z
M 1172 3481 
Q 1172 3119 1398 2916 
Q 1625 2713 2034 2713 
Q 2441 2713 2670 2916 
Q 2900 3119 2900 3481 
Q 2900 3844 2670 4047 
Q 2441 4250 2034 4250 
Q 1625 4250 1398 4047 
Q 1172 3844 1172 3481 
z
" transform="scale(0.015625)"/>
       </defs>
       <use xlink:href="#DejaVuSans-38"/>
       <use xlink:href="#DejaVuSans-30" x="63.623047"/>
      </g>
     </g>
    </g>
    <g id="ytick_5">
     <g id="line2d_15">
      <path d="M 55.557031 53.700542 
L 288.040375 53.700542 
" clip-path="url(#pccc1f510cb)" style="fill: none; stroke: #b0b0b0; stroke-width: 0.8; stroke-linecap: square"/>
     </g>
     <g id="line2d_16">
      <g>
       <use xlink:href="#me2fbff8e5a" x="55.557031" y="53.700542" style="stroke: #000000; stroke-width: 0.8"/>
      </g>
     </g>
     <g id="text_12">
      <!-- 90 -->
      <g transform="translate(34.559531 57.879682) scale(0.11 -0.11)">
       <defs>
        <path id="DejaVuSans-39" d="M 703 97 
L 703 672 
Q 941 559 1184 500 
Q 1428 441 1663 441 
Q 2288 441 2617 861 
Q 2947 1281 2994 2138 
Q 2813 1869 2534 1725 
Q 2256 1581 1919 1581 
Q 1219 1581 811 2004 
Q 403 2428 403 3163 
Q 403 3881 828 4315 
Q 1253 4750 1959 4750 
Q 2769 4750 3195 4129 
Q 3622 3509 3622 2328 
Q 3622 1225 3098 567 
Q 2575 -91 1691 -91 
Q 1453 -91 1209 -44 
Q 966 3 703 97 
z
M 1959 2075 
Q 2384 2075 2632 2365 
Q 2881 2656 2881 3163 
Q 2881 3666 2632 3958 
Q 2384 4250 1959 4250 
Q 1534 4250 1286 3958 
Q 1038 3666 1038 3163 
Q 1038 2656 1286 2365 
Q 1534 2075 1959 2075 
z
" transform="scale(0.015625)"/>
       </defs>
       <use xlink:href="#DejaVuSans-39"/>
       <use xlink:href="#DejaVuSans-30" x="63.623047"/>
      </g>
     </g>
    </g>
    <g id="ytick_6">
     <g id="line2d_17">
      <path d="M 55.557031 24.480305 
L 288.040375 24.480305 
" clip-path="url(#pccc1f510cb)" style="fill: none; stroke: #b0b0b0; stroke-width: 0.8; stroke-linecap: square"/>
     </g>
     <g id="line2d_18">
      <g>
       <use xlink:href="#me2fbff8e5a" x="55.557031" y="24.480305" style="stroke: #000000; stroke-width: 0.8"/>
      </g>
     </g>
     <g id="text_13">
      <!-- 100 -->
      <g transform="translate(27.560781 28.659446) scale(0.11 -0.11)">
       <use xlink:href="#DejaVuSans-31"/>
       <use xlink:href="#DejaVuSans-30" x="63.623047"/>
       <use xlink:href="#DejaVuSans-30" x="127.246094"/>
      </g>
     </g>
    </g>
    <g id="text_14">
     <!-- Test accuracy (%) -->
     <g transform="translate(21.273125 145.686953) rotate(-90) scale(0.11 -0.11)">
      <defs>
       <path id="DejaVuSans-54" d="M -19 4666 
L 3928 4666 
L 3928 4134 
L 2272 4134 
L 2272 0 
L 1638 0 
L 1638 4134 
L -19 4134 
L -19 4666 
z
" transform="scale(0.015625)"/>
       <path id="DejaVuSans-74" d="M 1172 4494 
L 1172 3500 
L 2356 3500 
L 2356 3053 
L 1172 3053 
L 1172 1153 
Q 1172 725 1289 603 
Q 1406 481 1766 481 
L 2356 481 
L 2356 0 
L 1766 0 
Q 1100 0 847 248 
Q 594 497 594 1153 
L 594 3053 
L 172 3053 
L 172 3500 
L 594 3500 
L 594 4494 
L 1172 4494 
z
" transform="scale(0.015625)"/>
       <path id="DejaVuSans-63" d="M 3122 3366 
L 3122 2828 
Q 2878 2963 2633 3030 
Q 2388 3097 2138 3097 
Q 1578 3097 1268 2742 
Q 959 2388 959 1747 
Q 959 1106 1268 751 
Q 1578 397 2138 397 
Q 2388 397 2633 464 
Q 2878 531 3122 666 
L 3122 134 
Q 2881 22 2623 -34 
Q 2366 -91 2075 -91 
Q 1284 -91 818 406 
Q 353 903 353 1747 
Q 353 2603 823 3093 
Q 1294 3584 2113 3584 
Q 2378 3584 2631 3529 
Q 2884 3475 3122 3366 
z
" transform="scale(0.015625)"/>
       <path id="DejaVuSans-79" d="M 2059 -325 
Q 1816 -950 1584 -1140 
Q 1353 -1331 966 -1331 
L 506 -1331 
L 506 -850 
L 844 -850 
Q 1081 -850 1212 -737 
Q 1344 -625 1503 -206 
L 1606 56 
L 191 3500 
L 800 3500 
L 1894 763 
L 2988 3500 
L 3597 3500 
L 2059 -325 
z
" transform="scale(0.015625)"/>
       <path id="DejaVuSans-28" d="M 1984 4856 
Q 1566 4138 1362 3434 
Q 1159 2731 1159 2009 
Q 1159 1288 1364 580 
Q 1569 -128 1984 -844 
L 1484 -844 
Q 1016 -109 783 600 
Q 550 1309 550 2009 
Q 550 2706 781 3412 
Q 1013 4119 1484 4856 
L 1984 4856 
z
" transform="scale(0.015625)"/>
       <path id="DejaVuSans-25" d="M 4653 2053 
Q 4381 2053 4226 1822 
Q 4072 1591 4072 1178 
Q 4072 772 4226 539 
Q 4381 306 4653 306 
Q 4919 306 5073 539 
Q 5228 772 5228 1178 
Q 5228 1588 5073 1820 
Q 4919 2053 4653 2053 
z
M 4653 2450 
Q 5147 2450 5437 2106 
Q 5728 1763 5728 1178 
Q 5728 594 5436 251 
Q 5144 -91 4653 -91 
Q 4153 -91 3862 251 
Q 3572 594 3572 1178 
Q 3572 1766 3864 2108 
Q 4156 2450 4653 2450 
z
M 1428 4353 
Q 1159 4353 1004 4120 
Q 850 3888 850 3481 
Q 850 3069 1003 2837 
Q 1156 2606 1428 2606 
Q 1700 2606 1854 2837 
Q 2009 3069 2009 3481 
Q 2009 3884 1853 4118 
Q 1697 4353 1428 4353 
z
M 4250 4750 
L 4750 4750 
L 1831 -91 
L 1331 -91 
L 4250 4750 
z
M 1428 4750 
Q 1922 4750 2215 4408 
Q 2509 4066 2509 3481 
Q 2509 2891 2217 2550 
Q 1925 2209 1428 2209 
Q 931 2209 642 2551 
Q 353 2894 353 3481 
Q 353 4063 643 4406 
Q 934 4750 1428 4750 
z
" transform="scale(0.015625)"/>
       <path id="DejaVuSans-29" d="M 513 4856 
L 1013 4856 
Q 1481 4119 1714 3412 
Q 1947 2706 1947 2009 
Q 1947 1309 1714 600 
Q 1481 -109 1013 -844 
L 513 -844 
Q 928 -128 1133 580 
Q 1338 1288 1338 2009 
Q 1338 2731 1133 3434 
Q 928 4138 513 4856 
z
" transform="scale(0.015625)"/>
      </defs>
      <use xlink:href="#DejaVuSans-54"/>
      <use xlink:href="#DejaVuSans-65" x="44.083984"/>
      <use xlink:href="#DejaVuSans-73" x="105.607422"/>
      <use xlink:href="#DejaVuSans-74" x="157.707031"/>
      <use xlink:href="#DejaVuSans-20" x="196.916016"/>
      <use xlink:href="#DejaVuSans-61" x="228.703125"/>
      <use xlink:href="#DejaVuSans-63" x="289.982422"/>
      <use xlink:href="#DejaVuSans-63" x="344.962891"/>
      <use xlink:href="#DejaVuSans-75" x="399.943359"/>
      <use xlink:href="#DejaVuSans-72" x="463.322266"/>
      <use xlink:href="#DejaVuSans-61" x="504.435547"/>
      <use xlink:href="#DejaVuSans-63" x="565.714844"/>
      <use xlink:href="#DejaVuSans-79" x="620.695312"/>
      <use xlink:href="#DejaVuSans-20" x="679.875"/>
      <use xlink:href="#DejaVuSans-28" x="711.662109"/>
      <use xlink:href="#DejaVuSans-25" x="750.675781"/>
      <use xlink:href="#DejaVuSans-29" x="845.695312"/>
     </g>
    </g>
   </g>
   <g id="line2d_19">
    <path d="M 66.124456 141.305734 
L 70.437691 90.369017 
L 74.750925 77.344096 
L 79.06416 62.612714 
L 83.377394 54.464651 
L 87.690629 49.710518 
L 92.003863 45.429754 
L 96.317098 43.464693 
L 100.630333 40.666855 
L 104.943567 39.668984 
L 109.256802 37.93038 
L 113.570036 37.284613 
L 117.883271 36.095349 
L 122.196506 35.602988 
L 126.50974 34.951377 
L 130.822975 34.599273 
L 135.136209 34.025095 
L 139.449444 34.308532 
L 143.762679 33.135339 
L 148.075913 33.466989 
L 152.389148 33.247837 
L 156.702382 32.612297 
L 161.015617 32.450125 
L 165.328851 32.724795 
L 169.642086 32.121397 
L 173.955321 32.377074 
L 178.268555 32.488111 
L 182.58179 31.843805 
L 186.895024 32.127241 
L 191.208259 31.709392 
L 195.521494 31.611504 
L 199.834728 31.816045 
L 204.147963 32.014743 
L 208.461197 31.425955 
L 212.774432 31.598355 
L 217.087666 31.282776 
L 221.400901 31.142519 
L 225.714136 30.891225 
L 230.02737 31.1732 
L 234.340605 31.051936 
L 238.653839 30.974503 
L 242.967074 30.676456 
L 247.280309 31.141058 
L 251.593543 30.769961 
L 255.906778 30.917523 
L 260.220012 30.880998 
L 264.533247 30.727592 
L 268.846481 30.702754 
L 273.159716 30.520128 
L 277.472951 30.821096 
" clip-path="url(#pccc1f510cb)" style="fill: none; stroke: #1f77b4; stroke-width: 1.5; stroke-linecap: square"/>
   </g>
   <g id="patch_3">
    <path d="M 55.557031 172.498281 
L 55.557031 21.558281 
" style="fill: none; stroke: #000000; stroke-width: 0.8; stroke-linejoin: miter; stroke-linecap: square"/>
   </g>
   <g id="patch_4">
    <path d="M 288.040375 172.498281 
L 288.040375 21.558281 
" style="fill: none; stroke: #000000; stroke-width: 0.8; stroke-linejoin: miter; stroke-linecap: square"/>
   </g>
   <g id="patch_5">
    <path d="M 55.557031 172.498281 
L 288.040375 172.498281 
" style="fill: none; stroke: #000000; stroke-width: 0.8; stroke-linejoin: miter; stroke-linecap: square"/>
   </g>
   <g id="patch_6">
    <path d="M 55.557031 21.558281 
L 288.040375 21.558281 
" style="fill: none; stroke: #000000; stroke-width: 0.8; stroke-linejoin: miter; stroke-linecap: square"/>
   </g>
   <g id="text_15">
    <!-- MNIST -->
    <g transform="translate(154.46511 15.558281) scale(0.11 -0.11)">
     <defs>
      <path id="DejaVuSans-4d" d="M 628 4666 
L 1569 4666 
L 2759 1491 
L 3956 4666 
L 4897 4666 
L 4897 0 
L 4281 0 
L 4281 4097 
L 3078 897 
L 2444 897 
L 1241 4097 
L 1241 0 
L 628 0 
L 628 4666 
z
" transform="scale(0.015625)"/>
      <path id="DejaVuSans-49" d="M 628 4666 
L 1259 4666 
L 1259 0 
L 628 0 
L 628 4666 
z
" transform="scale(0.015625)"/>
      <path id="DejaVuSans-53" d="M 3425 4513 
L 3425 3897 
Q 3066 4069 2747 4153 
Q 2428 4238 2131 4238 
Q 1616 4238 1336 4038 
Q 1056 3838 1056 3469 
Q 1056 3159 1242 3001 
Q 1428 2844 1947 2747 
L 2328 2669 
Q 3034 2534 3370 2195 
Q 3706 1856 3706 1288 
Q 3706 609 3251 259 
Q 2797 -91 1919 -91 
Q 1588 -91 1214 -16 
Q 841 59 441 206 
L 441 856 
Q 825 641 1194 531 
Q 1563 422 1919 422 
Q 2459 422 2753 634 
Q 3047 847 3047 1241 
Q 3047 1584 2836 1778 
Q 2625 1972 2144 2069 
L 1759 2144 
Q 1053 2284 737 2584 
Q 422 2884 422 3419 
Q 422 4038 858 4394 
Q 1294 4750 2059 4750 
Q 2388 4750 2728 4690 
Q 3069 4631 3425 4513 
z
" transform="scale(0.015625)"/>
     </defs>
     <use xlink:href="#DejaVuSans-4d"/>
     <use xlink:href="#DejaVuSans-4e" x="86.279297"/>
     <use xlink:href="#DejaVuSans-49" x="161.083984"/>
     <use xlink:href="#DejaVuSans-53" x="190.576172"/>
     <use xlink:href="#DejaVuSans-54" x="254.052734"/>
    </g>
   </g>
  </g>
  <g id="axes_2">
   <g id="patch_7">
    <path d="M 325.847235 172.498281 
L 558.330579 172.498281 
L 558.330579 21.558281 
L 325.847235 21.558281 
z
" style="fill: #ffffff"/>
   </g>
   <g id="PolyCollection_2">
    <path d="M 336.41466 165.450418 
L 336.41466 158.548593 
L 337.687843 110.369082 
L 338.961027 102.241953 
L 340.234211 72.257404 
L 341.507394 60.004072 
L 342.780578 50.728365 
L 344.053762 43.777556 
L 345.326946 45.591899 
L 346.600129 36.557968 
L 347.873313 33.308216 
L 349.146497 33.167606 
L 350.41968 33.37398 
L 351.692864 30.161371 
L 352.966048 28.550563 
L 354.239231 27.434069 
L 355.512415 27.377553 
L 356.785599 26.662741 
L 358.058783 26.891027 
L 359.331966 26.574117 
L 360.60515 27.047635 
L 361.878334 26.298896 
L 363.151517 26.280558 
L 364.424701 25.96048 
L 365.697885 25.524962 
L 366.971068 25.567398 
L 368.244252 27.082268 
L 369.517436 25.495303 
L 370.79062 25.058677 
L 372.063803 25.179563 
L 373.336987 25.337701 
L 374.610171 25.242922 
L 375.883354 25.106696 
L 377.156538 25.131575 
L 378.429722 25.12307 
L 379.702906 24.951425 
L 380.976089 25.122966 
L 382.249273 24.96058 
L 383.522457 25.122774 
L 384.79564 24.88501 
L 386.068824 24.799759 
L 387.342008 24.829712 
L 388.615191 24.862074 
L 389.888375 24.725468 
L 391.161559 24.738809 
L 392.434743 24.802655 
L 393.707926 24.67858 
L 394.98111 24.727002 
L 396.254294 24.764244 
L 397.527477 24.724876 
L 398.800661 24.614649 
L 400.073845 24.619503 
L 401.347028 24.636605 
L 402.620212 24.622493 
L 403.893396 24.581345 
L 405.16658 24.667452 
L 406.439763 24.680816 
L 407.712947 24.833472 
L 408.986131 24.605873 
L 410.259314 24.712293 
L 411.532498 24.611407 
L 412.805682 24.569168 
L 414.078865 24.574732 
L 415.352049 24.575532 
L 416.625233 24.550289 
L 417.898417 24.554448 
L 419.1716 24.589725 
L 420.444784 24.639035 
L 421.717968 24.584908 
L 422.991151 24.538471 
L 424.264335 24.578204 
L 425.537519 24.525782 
L 426.810703 24.586433 
L 428.083886 24.566561 
L 429.35707 24.575891 
L 430.630254 24.561407 
L 431.903437 24.542992 
L 433.176621 24.55903 
L 434.449805 24.555863 
L 435.722988 24.556787 
L 436.996172 24.544043 
L 438.269356 24.515758 
L 439.54254 24.534387 
L 440.815723 24.565868 
L 442.088907 24.535209 
L 443.362091 24.524846 
L 444.635274 24.53004 
L 445.908458 24.544022 
L 447.181642 24.557282 
L 448.454825 24.528974 
L 449.728009 24.527996 
L 451.001193 24.532492 
L 452.274377 24.517729 
L 453.54756 24.514892 
L 454.820744 24.516446 
L 456.093928 24.521588 
L 457.367111 24.522118 
L 458.640295 24.550434 
L 459.913479 24.506432 
L 461.186662 24.528011 
L 462.459846 24.514106 
L 463.73303 24.505473 
L 465.006214 24.525049 
L 466.279397 24.50579 
L 467.552581 24.533857 
L 468.825765 24.50847 
L 470.098948 24.503323 
L 471.372132 24.53051 
L 472.645316 24.519439 
L 473.9185 24.514836 
L 475.191683 24.518892 
L 476.464867 24.515328 
L 477.738051 24.516468 
L 479.011234 24.5291 
L 480.284418 24.524787 
L 481.557602 24.517097 
L 482.830785 24.517479 
L 484.103969 24.498679 
L 485.377153 24.514113 
L 486.650337 24.516887 
L 487.92352 24.518194 
L 489.196704 24.505116 
L 490.469888 24.504779 
L 491.743071 24.514887 
L 493.016255 24.500588 
L 494.289439 24.497768 
L 495.562622 24.507445 
L 496.835806 24.518084 
L 498.10899 24.510179 
L 499.382174 24.503149 
L 500.655357 24.504156 
L 501.928541 24.500973 
L 503.201725 24.527065 
L 504.474908 24.511459 
L 505.748092 24.507445 
L 507.021276 24.497095 
L 508.294459 24.504399 
L 509.567643 24.50446 
L 510.840827 24.503169 
L 512.114011 24.507767 
L 513.387194 24.507151 
L 514.660378 24.495884 
L 515.933562 24.504608 
L 517.206745 24.503916 
L 518.479929 24.502933 
L 519.753113 24.501705 
L 521.026297 24.511573 
L 522.29948 24.495649 
L 523.572664 24.497768 
L 524.845848 24.504779 
L 526.119031 24.502194 
L 527.392215 24.497116 
L 528.665399 24.502255 
L 529.938582 24.500091 
L 531.211766 24.501857 
L 532.48495 24.501493 
L 533.758134 24.502194 
L 535.031317 24.504407 
L 536.304501 24.493859 
L 537.577685 24.50254 
L 538.850868 24.504156 
L 540.124052 24.499342 
L 541.397236 24.493151 
L 542.670419 24.497333 
L 543.943603 24.497261 
L 545.216787 24.501857 
L 546.489971 24.499635 
L 547.763154 24.499647 
L 547.763154 24.519403 
L 547.763154 24.519403 
L 546.489971 24.516493 
L 545.216787 24.514271 
L 543.943603 24.513023 
L 542.670419 24.507108 
L 541.397236 24.502523 
L 540.124052 24.510943 
L 538.850868 24.517817 
L 537.577685 24.51651 
L 536.304501 24.504737 
L 535.031317 24.520488 
L 533.758134 24.513934 
L 532.48495 24.508791 
L 531.211766 24.514271 
L 529.938582 24.510193 
L 528.665399 24.516795 
L 527.392215 24.510246 
L 526.119031 24.513934 
L 524.845848 24.517193 
L 523.572664 24.506672 
L 522.29948 24.502947 
L 521.026297 24.525009 
L 519.753113 24.511501 
L 518.479929 24.513195 
L 517.206745 24.520978 
L 515.933562 24.523209 
L 514.660378 24.508557 
L 513.387194 24.517744 
L 512.114011 24.520049 
L 510.840827 24.510037 
L 509.567643 24.517512 
L 508.294459 24.52634 
L 507.021276 24.521955 
L 505.748092 24.520372 
L 504.474908 24.530967 
L 503.201725 24.553348 
L 501.928541 24.509311 
L 500.655357 24.517817 
L 499.382174 24.515902 
L 498.10899 24.614065 
L 496.835806 24.544797 
L 495.562622 24.520372 
L 494.289439 24.506672 
L 493.016255 24.512619 
L 491.743071 24.562604 
L 490.469888 24.517193 
L 489.196704 24.516856 
L 487.92352 24.532998 
L 486.650337 24.54015 
L 485.377153 24.528314 
L 484.103969 24.511606 
L 482.830785 24.55709 
L 481.557602 24.537018 
L 480.284418 24.555626 
L 479.011234 24.545469 
L 477.738051 24.528881 
L 476.464867 24.573851 
L 475.191683 24.535223 
L 473.9185 24.536356 
L 472.645316 24.537598 
L 471.372132 24.573279 
L 470.098948 24.530338 
L 468.825765 24.519347 
L 467.552581 24.58162 
L 466.279397 24.519104 
L 465.006214 24.569974 
L 463.73303 24.516499 
L 462.459846 24.537087 
L 461.186662 24.561168 
L 459.913479 24.518463 
L 458.640295 24.620562 
L 457.367111 24.543685 
L 456.093928 24.541293 
L 454.820744 24.549357 
L 453.54756 24.539223 
L 452.274377 24.536385 
L 451.001193 24.635582 
L 449.728009 24.575793 
L 448.454825 24.557283 
L 447.181642 24.634167 
L 445.908458 24.591909 
L 444.635274 24.573749 
L 443.362091 24.543879 
L 442.088907 24.56858 
L 440.815723 24.616815 
L 439.54254 24.554792 
L 438.269356 24.538356 
L 436.996172 24.59481 
L 435.722988 24.584988 
L 434.449805 24.609288 
L 433.176621 24.591512 
L 431.903437 24.584173 
L 430.630254 24.758612 
L 429.35707 24.709063 
L 428.083886 24.662876 
L 426.810703 24.707288 
L 425.537519 24.572163 
L 424.264335 24.624934 
L 422.991151 24.556552 
L 421.717968 24.717578 
L 420.444784 25.081301 
L 419.1716 24.677698 
L 417.898417 24.634079 
L 416.625233 24.690835 
L 415.352049 24.659748 
L 414.078865 24.619639 
L 412.805682 24.61936 
L 411.532498 24.775819 
L 410.259314 25.130768 
L 408.986131 24.696613 
L 407.712947 25.322245 
L 406.439763 24.832057 
L 405.16658 24.8162 
L 403.893396 24.636403 
L 402.620212 24.720902 
L 401.347028 24.832437 
L 400.073845 24.70636 
L 398.800661 24.681994 
L 397.527477 25.261364 
L 396.254294 24.935638 
L 394.98111 24.943659 
L 393.707926 24.813838 
L 392.434743 25.271246 
L 391.161559 24.879256 
L 389.888375 24.901363 
L 388.615191 25.094946 
L 387.342008 25.156528 
L 386.068824 25.008238 
L 384.79564 25.402198 
L 383.522457 25.585207 
L 382.249273 25.344161 
L 380.976089 25.564559 
L 379.702906 25.405912 
L 378.429722 25.690103 
L 377.156538 25.912438 
L 375.883354 25.317848 
L 374.610171 25.730962 
L 373.336987 25.913776 
L 372.063803 25.730037 
L 370.79062 25.748652 
L 369.517436 25.969481 
L 368.244252 28.508414 
L 366.971068 26.715552 
L 365.697885 25.963198 
L 364.424701 26.924408 
L 363.151517 27.267629 
L 361.878334 27.439223 
L 360.60515 28.744666 
L 359.331966 27.552631 
L 358.058783 28.21752 
L 356.785599 27.981205 
L 355.512415 28.441046 
L 354.239231 28.878352 
L 352.966048 30.178372 
L 351.692864 32.667163 
L 350.41968 37.010908 
L 349.146497 36.901703 
L 347.873313 37.608479 
L 346.600129 39.3437 
L 345.326946 51.187629 
L 344.053762 49.039708 
L 342.780578 56.059094 
L 341.507394 66.621006 
L 340.234211 80.765235 
L 338.961027 112.043835 
L 337.687843 116.539849 
L 336.41466 165.450418 
z
" clip-path="url(#p09849df11e)" style="fill: #1f77b4; fill-opacity: 0.3"/>
   </g>
   <g id="matplotlib.axis_3">
    <g id="xtick_7">
     <g id="line2d_20">
      <g>
       <use xlink:href="#m25fa12604d" x="335.141476" y="172.498281" style="stroke: #000000; stroke-width: 0.8"/>
      </g>
     </g>
     <g id="text_16">
      <!-- 0 -->
      <g transform="translate(331.642101 187.856562) scale(0.11 -0.11)">
       <use xlink:href="#DejaVuSans-30"/>
      </g>
     </g>
    </g>
    <g id="xtick_8">
     <g id="line2d_21">
      <g>
       <use xlink:href="#m25fa12604d" x="377.580933" y="172.498281" style="stroke: #000000; stroke-width: 0.8"/>
      </g>
     </g>
     <g id="text_17">
      <!-- 100 -->
      <g transform="translate(367.082808 187.856562) scale(0.11 -0.11)">
       <use xlink:href="#DejaVuSans-31"/>
       <use xlink:href="#DejaVuSans-30" x="63.623047"/>
       <use xlink:href="#DejaVuSans-30" x="127.246094"/>
      </g>
     </g>
    </g>
    <g id="xtick_9">
     <g id="line2d_22">
      <g>
       <use xlink:href="#m25fa12604d" x="420.020389" y="172.498281" style="stroke: #000000; stroke-width: 0.8"/>
      </g>
     </g>
     <g id="text_18">
      <!-- 200 -->
      <g transform="translate(409.522264 187.856562) scale(0.11 -0.11)">
       <use xlink:href="#DejaVuSans-32"/>
       <use xlink:href="#DejaVuSans-30" x="63.623047"/>
       <use xlink:href="#DejaVuSans-30" x="127.246094"/>
      </g>
     </g>
    </g>
    <g id="xtick_10">
     <g id="line2d_23">
      <g>
       <use xlink:href="#m25fa12604d" x="462.459846" y="172.498281" style="stroke: #000000; stroke-width: 0.8"/>
      </g>
     </g>
     <g id="text_19">
      <!-- 300 -->
      <g transform="translate(451.961721 187.856562) scale(0.11 -0.11)">
       <use xlink:href="#DejaVuSans-33"/>
       <use xlink:href="#DejaVuSans-30" x="63.623047"/>
       <use xlink:href="#DejaVuSans-30" x="127.246094"/>
      </g>
     </g>
    </g>
    <g id="xtick_11">
     <g id="line2d_24">
      <g>
       <use xlink:href="#m25fa12604d" x="504.899303" y="172.498281" style="stroke: #000000; stroke-width: 0.8"/>
      </g>
     </g>
     <g id="text_20">
      <!-- 400 -->
      <g transform="translate(494.401178 187.856562) scale(0.11 -0.11)">
       <use xlink:href="#DejaVuSans-34"/>
       <use xlink:href="#DejaVuSans-30" x="63.623047"/>
       <use xlink:href="#DejaVuSans-30" x="127.246094"/>
      </g>
     </g>
    </g>
    <g id="xtick_12">
     <g id="line2d_25">
      <g>
       <use xlink:href="#m25fa12604d" x="547.33876" y="172.498281" style="stroke: #000000; stroke-width: 0.8"/>
      </g>
     </g>
     <g id="text_21">
      <!-- 500 -->
      <g transform="translate(536.840635 187.856562) scale(0.11 -0.11)">
       <use xlink:href="#DejaVuSans-35"/>
       <use xlink:href="#DejaVuSans-30" x="63.623047"/>
       <use xlink:href="#DejaVuSans-30" x="127.246094"/>
      </g>
     </g>
    </g>
    <g id="text_22">
     <!-- Number of labels -->
     <g transform="translate(395.029532 202.5025) scale(0.11 -0.11)">
      <use xlink:href="#DejaVuSans-4e"/>
      <use xlink:href="#DejaVuSans-75" x="74.804688"/>
      <use xlink:href="#DejaVuSans-6d" x="138.183594"/>
      <use xlink:href="#DejaVuSans-62" x="235.595703"/>
      <use xlink:href="#DejaVuSans-65" x="299.072266"/>
      <use xlink:href="#DejaVuSans-72" x="360.595703"/>
      <use xlink:href="#DejaVuSans-20" x="401.708984"/>
      <use xlink:href="#DejaVuSans-6f" x="433.496094"/>
      <use xlink:href="#DejaVuSans-66" x="494.677734"/>
      <use xlink:href="#DejaVuSans-20" x="529.882812"/>
      <use xlink:href="#DejaVuSans-6c" x="561.669922"/>
      <use xlink:href="#DejaVuSans-61" x="589.453125"/>
      <use xlink:href="#DejaVuSans-62" x="650.732422"/>
      <use xlink:href="#DejaVuSans-65" x="714.208984"/>
      <use xlink:href="#DejaVuSans-6c" x="775.732422"/>
      <use xlink:href="#DejaVuSans-73" x="803.515625"/>
     </g>
    </g>
   </g>
   <g id="matplotlib.axis_4">
    <g id="ytick_7">
     <g id="line2d_26">
      <path d="M 325.847235 170.581489 
L 558.330579 170.581489 
" clip-path="url(#p09849df11e)" style="fill: none; stroke: #b0b0b0; stroke-width: 0.8; stroke-linecap: square"/>
     </g>
     <g id="line2d_27">
      <g>
       <use xlink:href="#me2fbff8e5a" x="325.847235" y="170.581489" style="stroke: #000000; stroke-width: 0.8"/>
      </g>
     </g>
    </g>
    <g id="ytick_8">
     <g id="line2d_28">
      <path d="M 325.847235 141.361252 
L 558.330579 141.361252 
" clip-path="url(#p09849df11e)" style="fill: none; stroke: #b0b0b0; stroke-width: 0.8; stroke-linecap: square"/>
     </g>
     <g id="line2d_29">
      <g>
       <use xlink:href="#me2fbff8e5a" x="325.847235" y="141.361252" style="stroke: #000000; stroke-width: 0.8"/>
      </g>
     </g>
    </g>
    <g id="ytick_9">
     <g id="line2d_30">
      <path d="M 325.847235 112.141015 
L 558.330579 112.141015 
" clip-path="url(#p09849df11e)" style="fill: none; stroke: #b0b0b0; stroke-width: 0.8; stroke-linecap: square"/>
     </g>
     <g id="line2d_31">
      <g>
       <use xlink:href="#me2fbff8e5a" x="325.847235" y="112.141015" style="stroke: #000000; stroke-width: 0.8"/>
      </g>
     </g>
    </g>
    <g id="ytick_10">
     <g id="line2d_32">
      <path d="M 325.847235 82.920779 
L 558.330579 82.920779 
" clip-path="url(#p09849df11e)" style="fill: none; stroke: #b0b0b0; stroke-width: 0.8; stroke-linecap: square"/>
     </g>
     <g id="line2d_33">
      <g>
       <use xlink:href="#me2fbff8e5a" x="325.847235" y="82.920779" style="stroke: #000000; stroke-width: 0.8"/>
      </g>
     </g>
    </g>
    <g id="ytick_11">
     <g id="line2d_34">
      <path d="M 325.847235 53.700542 
L 558.330579 53.700542 
" clip-path="url(#p09849df11e)" style="fill: none; stroke: #b0b0b0; stroke-width: 0.8; stroke-linecap: square"/>
     </g>
     <g id="line2d_35">
      <g>
       <use xlink:href="#me2fbff8e5a" x="325.847235" y="53.700542" style="stroke: #000000; stroke-width: 0.8"/>
      </g>
     </g>
    </g>
    <g id="ytick_12">
     <g id="line2d_36">
      <path d="M 325.847235 24.480305 
L 558.330579 24.480305 
" clip-path="url(#p09849df11e)" style="fill: none; stroke: #b0b0b0; stroke-width: 0.8; stroke-linecap: square"/>
     </g>
     <g id="line2d_37">
      <g>
       <use xlink:href="#me2fbff8e5a" x="325.847235" y="24.480305" style="stroke: #000000; stroke-width: 0.8"/>
      </g>
     </g>
    </g>
   </g>
   <g id="line2d_38">
    <path d="M 336.41466 161.999506 
L 337.687843 113.454465 
L 338.961027 107.142894 
L 340.234211 76.51132 
L 341.507394 63.312539 
L 342.780578 53.393729 
L 344.053762 46.408632 
L 345.326946 48.389764 
L 346.600129 37.950834 
L 347.873313 35.458348 
L 349.146497 35.034654 
L 350.41968 35.192444 
L 351.692864 31.414267 
L 352.966048 29.364468 
L 354.239231 28.156211 
L 355.512415 27.9093 
L 356.785599 27.321973 
L 358.058783 27.554274 
L 359.331966 27.063374 
L 360.60515 27.896151 
L 361.878334 26.869059 
L 363.151517 26.774094 
L 364.424701 26.442444 
L 365.697885 25.74408 
L 366.971068 26.141475 
L 368.244252 27.795341 
L 369.517436 25.732392 
L 370.79062 25.403664 
L 372.063803 25.4548 
L 373.336987 25.625738 
L 374.610171 25.486942 
L 375.883354 25.212272 
L 377.156538 25.522006 
L 378.429722 25.406586 
L 379.702906 25.178669 
L 380.976089 25.343763 
L 382.249273 25.15237 
L 383.522457 25.35399 
L 386.068824 24.903998 
L 388.615191 24.97851 
L 389.888375 24.813416 
L 391.161559 24.809033 
L 392.434743 25.03695 
L 393.707926 24.746209 
L 397.527477 24.99312 
L 398.800661 24.648321 
L 406.439763 24.756436 
L 407.712947 25.077859 
L 408.986131 24.651243 
L 410.259314 24.921531 
L 411.532498 24.693613 
L 414.078865 24.597186 
L 419.1716 24.633711 
L 420.444784 24.860168 
L 422.991151 24.547511 
L 426.810703 24.64686 
L 433.176621 24.575271 
L 447.181642 24.595725 
L 449.728009 24.551895 
L 452.274377 24.527057 
L 547.763154 24.509525 
L 547.763154 24.509525 
" clip-path="url(#p09849df11e)" style="fill: none; stroke: #1f77b4; stroke-width: 1.5; stroke-linecap: square"/>
   </g>
   <g id="patch_8">
    <path d="M 325.847235 172.498281 
L 325.847235 21.558281 
" style="fill: none; stroke: #000000; stroke-width: 0.8; stroke-linejoin: miter; stroke-linecap: square"/>
   </g>
   <g id="patch_9">
    <path d="M 558.330579 172.498281 
L 558.330579 21.558281 
" style="fill: none; stroke: #000000; stroke-width: 0.8; stroke-linejoin: miter; stroke-linecap: square"/>
   </g>
   <g id="patch_10">
    <path d="M 325.847235 172.498281 
L 558.330579 172.498281 
" style="fill: none; stroke: #000000; stroke-width: 0.8; stroke-linejoin: miter; stroke-linecap: square"/>
   </g>
   <g id="patch_11">
    <path d="M 325.847235 21.558281 
L 558.330579 21.558281 
" style="fill: none; stroke: #000000; stroke-width: 0.8; stroke-linejoin: miter; stroke-linecap: square"/>
   </g>
   <g id="text_23">
    <!-- dSprites -->
    <g transform="translate(419.419454 15.558281) scale(0.11 -0.11)">
     <defs>
      <path id="DejaVuSans-64" d="M 2906 2969 
L 2906 4863 
L 3481 4863 
L 3481 0 
L 2906 0 
L 2906 525 
Q 2725 213 2448 61 
Q 2172 -91 1784 -91 
Q 1150 -91 751 415 
Q 353 922 353 1747 
Q 353 2572 751 3078 
Q 1150 3584 1784 3584 
Q 2172 3584 2448 3432 
Q 2725 3281 2906 2969 
z
M 947 1747 
Q 947 1113 1208 752 
Q 1469 391 1925 391 
Q 2381 391 2643 752 
Q 2906 1113 2906 1747 
Q 2906 2381 2643 2742 
Q 2381 3103 1925 3103 
Q 1469 3103 1208 2742 
Q 947 2381 947 1747 
z
" transform="scale(0.015625)"/>
      <path id="DejaVuSans-70" d="M 1159 525 
L 1159 -1331 
L 581 -1331 
L 581 3500 
L 1159 3500 
L 1159 2969 
Q 1341 3281 1617 3432 
Q 1894 3584 2278 3584 
Q 2916 3584 3314 3078 
Q 3713 2572 3713 1747 
Q 3713 922 3314 415 
Q 2916 -91 2278 -91 
Q 1894 -91 1617 61 
Q 1341 213 1159 525 
z
M 3116 1747 
Q 3116 2381 2855 2742 
Q 2594 3103 2138 3103 
Q 1681 3103 1420 2742 
Q 1159 2381 1159 1747 
Q 1159 1113 1420 752 
Q 1681 391 2138 391 
Q 2594 391 2855 752 
Q 3116 1113 3116 1747 
z
" transform="scale(0.015625)"/>
      <path id="DejaVuSans-69" d="M 603 3500 
L 1178 3500 
L 1178 0 
L 603 0 
L 603 3500 
z
M 603 4863 
L 1178 4863 
L 1178 4134 
L 603 4134 
L 603 4863 
z
" transform="scale(0.015625)"/>
     </defs>
     <use xlink:href="#DejaVuSans-64"/>
     <use xlink:href="#DejaVuSans-53" x="63.476562"/>
     <use xlink:href="#DejaVuSans-70" x="126.953125"/>
     <use xlink:href="#DejaVuSans-72" x="190.429688"/>
     <use xlink:href="#DejaVuSans-69" x="231.542969"/>
     <use xlink:href="#DejaVuSans-74" x="259.326172"/>
     <use xlink:href="#DejaVuSans-65" x="298.535156"/>
     <use xlink:href="#DejaVuSans-73" x="360.058594"/>
    </g>
   </g>
  </g>
  <g id="axes_3">
   <g id="patch_12">
    <path d="M 55.557031 382.558281 
L 288.040375 382.558281 
L 288.040375 231.618281 
L 55.557031 231.618281 
z
" style="fill: #ffffff"/>
   </g>
   <g id="PolyCollection_3">
    <path d="M 66.124456 375.543112 
L 66.124456 368.564909 
L 70.437691 313.997971 
L 74.750925 298.362842 
L 79.06416 281.963471 
L 83.377394 272.334182 
L 87.690629 266.861602 
L 92.003863 261.139019 
L 96.317098 258.929743 
L 100.630333 255.546 
L 104.943567 253.953486 
L 109.256802 252.458301 
L 113.570036 251.198942 
L 117.883271 249.759258 
L 122.196506 249.07071 
L 126.50974 248.134893 
L 130.822975 247.807352 
L 135.136209 247.001649 
L 139.449444 246.980195 
L 143.762679 245.895359 
L 148.075913 246.164116 
L 152.389148 245.943595 
L 156.702382 244.966109 
L 161.015617 244.883982 
L 165.328851 244.987365 
L 169.642086 244.162436 
L 173.955321 244.450872 
L 178.268555 244.480237 
L 182.58179 243.936861 
L 186.895024 243.919173 
L 191.208259 243.586224 
L 195.521494 243.371478 
L 199.834728 243.532869 
L 204.147963 243.632836 
L 208.461197 243.150248 
L 212.774432 243.137309 
L 217.087666 242.694666 
L 221.400901 242.759475 
L 225.714136 242.463246 
L 230.02737 242.617392 
L 234.340605 242.511433 
L 238.653839 242.388447 
L 242.967074 242.128742 
L 247.280309 242.623489 
L 251.593543 242.226375 
L 255.906778 242.253541 
L 260.220012 242.082106 
L 264.533247 242.030817 
L 268.846481 242.056888 
L 273.159716 241.75294 
L 277.472951 242.038092 
L 277.472951 242.299086 
L 277.472951 242.299086 
L 273.159716 241.960916 
L 268.846481 242.293339 
L 264.533247 242.344503 
L 260.220012 242.357454 
L 255.906778 242.55941 
L 251.593543 242.477168 
L 247.280309 243.013532 
L 242.967074 242.421229 
L 238.653839 242.655364 
L 234.340605 242.769261 
L 230.02737 243.043719 
L 225.714136 242.758227 
L 221.400901 243.080302 
L 217.087666 243.011613 
L 212.774432 243.552635 
L 208.461197 243.442333 
L 204.147963 244.143155 
L 199.834728 243.853671 
L 195.521494 243.677805 
L 191.208259 243.912734 
L 186.895024 244.334598 
L 182.58179 244.253674 
L 178.268555 244.920808 
L 173.955321 244.846788 
L 169.642086 244.661459 
L 165.328851 245.501733 
L 161.015617 245.225703 
L 156.702382 245.348339 
L 152.389148 246.370302 
L 148.075913 246.585405 
L 143.762679 246.424561 
L 139.449444 247.6413 
L 135.136209 247.626872 
L 130.822975 248.380981 
L 126.50974 248.802229 
L 122.196506 250.025456 
L 117.883271 250.563479 
L 113.570036 251.93828 
L 109.256802 253.184256 
L 104.943567 255.380825 
L 100.630333 257.01433 
L 96.317098 260.924764 
L 92.003863 263.728164 
L 87.690629 269.107945 
L 83.377394 274.976621 
L 79.06416 285.502424 
L 74.750925 303.953899 
L 70.437691 318.907737 
L 66.124456 375.543112 
z
" clip-path="url(#pc8e5f26e7b)" style="fill: #1f77b4; fill-opacity: 0.3"/>
   </g>
   <g id="matplotlib.axis_5">
    <g id="xtick_13">
     <g id="line2d_39">
      <g>
       <use xlink:href="#m25fa12604d" x="61.811221" y="382.558281" style="stroke: #000000; stroke-width: 0.8"/>
      </g>
     </g>
     <g id="text_24">
      <!-- 0 -->
      <g transform="translate(58.311846 397.916562) scale(0.11 -0.11)">
       <use xlink:href="#DejaVuSans-30"/>
      </g>
     </g>
    </g>
    <g id="xtick_14">
     <g id="line2d_40">
      <g>
       <use xlink:href="#m25fa12604d" x="104.943567" y="382.558281" style="stroke: #000000; stroke-width: 0.8"/>
      </g>
     </g>
     <g id="text_25">
      <!-- 100 -->
      <g transform="translate(94.445442 397.916562) scale(0.11 -0.11)">
       <use xlink:href="#DejaVuSans-31"/>
       <use xlink:href="#DejaVuSans-30" x="63.623047"/>
       <use xlink:href="#DejaVuSans-30" x="127.246094"/>
      </g>
     </g>
    </g>
    <g id="xtick_15">
     <g id="line2d_41">
      <g>
       <use xlink:href="#m25fa12604d" x="148.075913" y="382.558281" style="stroke: #000000; stroke-width: 0.8"/>
      </g>
     </g>
     <g id="text_26">
      <!-- 200 -->
      <g transform="translate(137.577788 397.916562) scale(0.11 -0.11)">
       <use xlink:href="#DejaVuSans-32"/>
       <use xlink:href="#DejaVuSans-30" x="63.623047"/>
       <use xlink:href="#DejaVuSans-30" x="127.246094"/>
      </g>
     </g>
    </g>
    <g id="xtick_16">
     <g id="line2d_42">
      <g>
       <use xlink:href="#m25fa12604d" x="191.208259" y="382.558281" style="stroke: #000000; stroke-width: 0.8"/>
      </g>
     </g>
     <g id="text_27">
      <!-- 300 -->
      <g transform="translate(180.710134 397.916562) scale(0.11 -0.11)">
       <use xlink:href="#DejaVuSans-33"/>
       <use xlink:href="#DejaVuSans-30" x="63.623047"/>
       <use xlink:href="#DejaVuSans-30" x="127.246094"/>
      </g>
     </g>
    </g>
    <g id="xtick_17">
     <g id="line2d_43">
      <g>
       <use xlink:href="#m25fa12604d" x="234.340605" y="382.558281" style="stroke: #000000; stroke-width: 0.8"/>
      </g>
     </g>
     <g id="text_28">
      <!-- 400 -->
      <g transform="translate(223.84248 397.916562) scale(0.11 -0.11)">
       <use xlink:href="#DejaVuSans-34"/>
       <use xlink:href="#DejaVuSans-30" x="63.623047"/>
       <use xlink:href="#DejaVuSans-30" x="127.246094"/>
      </g>
     </g>
    </g>
    <g id="xtick_18">
     <g id="line2d_44">
      <g>
       <use xlink:href="#m25fa12604d" x="277.472951" y="382.558281" style="stroke: #000000; stroke-width: 0.8"/>
      </g>
     </g>
     <g id="text_29">
      <!-- 500 -->
      <g transform="translate(266.974826 397.916562) scale(0.11 -0.11)">
       <use xlink:href="#DejaVuSans-35"/>
       <use xlink:href="#DejaVuSans-30" x="63.623047"/>
       <use xlink:href="#DejaVuSans-30" x="127.246094"/>
      </g>
     </g>
    </g>
    <g id="text_30">
     <!-- Number of labels -->
     <g transform="translate(124.739328 412.5625) scale(0.11 -0.11)">
      <use xlink:href="#DejaVuSans-4e"/>
      <use xlink:href="#DejaVuSans-75" x="74.804688"/>
      <use xlink:href="#DejaVuSans-6d" x="138.183594"/>
      <use xlink:href="#DejaVuSans-62" x="235.595703"/>
      <use xlink:href="#DejaVuSans-65" x="299.072266"/>
      <use xlink:href="#DejaVuSans-72" x="360.595703"/>
      <use xlink:href="#DejaVuSans-20" x="401.708984"/>
      <use xlink:href="#DejaVuSans-6f" x="433.496094"/>
      <use xlink:href="#DejaVuSans-66" x="494.677734"/>
      <use xlink:href="#DejaVuSans-20" x="529.882812"/>
      <use xlink:href="#DejaVuSans-6c" x="561.669922"/>
      <use xlink:href="#DejaVuSans-61" x="589.453125"/>
      <use xlink:href="#DejaVuSans-62" x="650.732422"/>
      <use xlink:href="#DejaVuSans-65" x="714.208984"/>
      <use xlink:href="#DejaVuSans-6c" x="775.732422"/>
      <use xlink:href="#DejaVuSans-73" x="803.515625"/>
     </g>
    </g>
   </g>
   <g id="matplotlib.axis_6">
    <g id="ytick_13">
     <g id="line2d_45">
      <path d="M 55.557031 335.003469 
L 288.040375 335.003469 
" clip-path="url(#pc8e5f26e7b)" style="fill: none; stroke: #b0b0b0; stroke-width: 0.8; stroke-linecap: square"/>
     </g>
     <g id="line2d_46">
      <g>
       <use xlink:href="#me2fbff8e5a" x="55.557031" y="335.003469" style="stroke: #000000; stroke-width: 0.8"/>
      </g>
     </g>
     <g id="text_31">
      <!-- 1.0 -->
      <g transform="translate(21.845938 339.18261) scale(0.11 -0.11)">
       <defs>
        <path id="DejaVuSans-2212" d="M 678 2272 
L 4684 2272 
L 4684 1741 
L 678 1741 
L 678 2272 
z
" transform="scale(0.015625)"/>
        <path id="DejaVuSans-2e" d="M 684 794 
L 1344 794 
L 1344 0 
L 684 0 
L 684 794 
z
" transform="scale(0.015625)"/>
       </defs>
       <use xlink:href="#DejaVuSans-2212"/>
       <use xlink:href="#DejaVuSans-31" x="83.789062"/>
       <use xlink:href="#DejaVuSans-2e" x="147.412109"/>
       <use xlink:href="#DejaVuSans-30" x="179.199219"/>
      </g>
     </g>
    </g>
    <g id="ytick_14">
     <g id="line2d_47">
      <path d="M 55.557031 284.816485 
L 288.040375 284.816485 
" clip-path="url(#pc8e5f26e7b)" style="fill: none; stroke: #b0b0b0; stroke-width: 0.8; stroke-linecap: square"/>
     </g>
     <g id="line2d_48">
      <g>
       <use xlink:href="#me2fbff8e5a" x="55.557031" y="284.816485" style="stroke: #000000; stroke-width: 0.8"/>
      </g>
     </g>
     <g id="text_32">
      <!-- 0.5 -->
      <g transform="translate(21.845938 288.995625) scale(0.11 -0.11)">
       <use xlink:href="#DejaVuSans-2212"/>
       <use xlink:href="#DejaVuSans-30" x="83.789062"/>
       <use xlink:href="#DejaVuSans-2e" x="147.412109"/>
       <use xlink:href="#DejaVuSans-35" x="179.199219"/>
      </g>
     </g>
    </g>
    <g id="ytick_15">
     <g id="line2d_49">
      <path d="M 55.557031 234.6295 
L 288.040375 234.6295 
" clip-path="url(#pc8e5f26e7b)" style="fill: none; stroke: #b0b0b0; stroke-width: 0.8; stroke-linecap: square"/>
     </g>
     <g id="line2d_50">
      <g>
       <use xlink:href="#me2fbff8e5a" x="55.557031" y="234.6295" style="stroke: #000000; stroke-width: 0.8"/>
      </g>
     </g>
     <g id="text_33">
      <!-- 0.0 -->
      <g transform="translate(31.063594 238.808641) scale(0.11 -0.11)">
       <use xlink:href="#DejaVuSans-30"/>
       <use xlink:href="#DejaVuSans-2e" x="63.623047"/>
       <use xlink:href="#DejaVuSans-30" x="95.410156"/>
      </g>
     </g>
    </g>
    <g id="text_34">
     <!-- Test expected log likelihood -->
     <g transform="translate(15.558281 383.211719) rotate(-90) scale(0.11 -0.11)">
      <defs>
       <path id="DejaVuSans-78" d="M 3513 3500 
L 2247 1797 
L 3578 0 
L 2900 0 
L 1881 1375 
L 863 0 
L 184 0 
L 1544 1831 
L 300 3500 
L 978 3500 
L 1906 2253 
L 2834 3500 
L 3513 3500 
z
" transform="scale(0.015625)"/>
       <path id="DejaVuSans-67" d="M 2906 1791 
Q 2906 2416 2648 2759 
Q 2391 3103 1925 3103 
Q 1463 3103 1205 2759 
Q 947 2416 947 1791 
Q 947 1169 1205 825 
Q 1463 481 1925 481 
Q 2391 481 2648 825 
Q 2906 1169 2906 1791 
z
M 3481 434 
Q 3481 -459 3084 -895 
Q 2688 -1331 1869 -1331 
Q 1566 -1331 1297 -1286 
Q 1028 -1241 775 -1147 
L 775 -588 
Q 1028 -725 1275 -790 
Q 1522 -856 1778 -856 
Q 2344 -856 2625 -561 
Q 2906 -266 2906 331 
L 2906 616 
Q 2728 306 2450 153 
Q 2172 0 1784 0 
Q 1141 0 747 490 
Q 353 981 353 1791 
Q 353 2603 747 3093 
Q 1141 3584 1784 3584 
Q 2172 3584 2450 3431 
Q 2728 3278 2906 2969 
L 2906 3500 
L 3481 3500 
L 3481 434 
z
" transform="scale(0.015625)"/>
       <path id="DejaVuSans-6b" d="M 581 4863 
L 1159 4863 
L 1159 1991 
L 2875 3500 
L 3609 3500 
L 1753 1863 
L 3688 0 
L 2938 0 
L 1159 1709 
L 1159 0 
L 581 0 
L 581 4863 
z
" transform="scale(0.015625)"/>
       <path id="DejaVuSans-68" d="M 3513 2113 
L 3513 0 
L 2938 0 
L 2938 2094 
Q 2938 2591 2744 2837 
Q 2550 3084 2163 3084 
Q 1697 3084 1428 2787 
Q 1159 2491 1159 1978 
L 1159 0 
L 581 0 
L 581 4863 
L 1159 4863 
L 1159 2956 
Q 1366 3272 1645 3428 
Q 1925 3584 2291 3584 
Q 2894 3584 3203 3211 
Q 3513 2838 3513 2113 
z
" transform="scale(0.015625)"/>
      </defs>
      <use xlink:href="#DejaVuSans-54"/>
      <use xlink:href="#DejaVuSans-65" x="44.083984"/>
      <use xlink:href="#DejaVuSans-73" x="105.607422"/>
      <use xlink:href="#DejaVuSans-74" x="157.707031"/>
      <use xlink:href="#DejaVuSans-20" x="196.916016"/>
      <use xlink:href="#DejaVuSans-65" x="228.703125"/>
      <use xlink:href="#DejaVuSans-78" x="288.476562"/>
      <use xlink:href="#DejaVuSans-70" x="347.65625"/>
      <use xlink:href="#DejaVuSans-65" x="411.132812"/>
      <use xlink:href="#DejaVuSans-63" x="472.65625"/>
      <use xlink:href="#DejaVuSans-74" x="527.636719"/>
      <use xlink:href="#DejaVuSans-65" x="566.845703"/>
      <use xlink:href="#DejaVuSans-64" x="628.369141"/>
      <use xlink:href="#DejaVuSans-20" x="691.845703"/>
      <use xlink:href="#DejaVuSans-6c" x="723.632812"/>
      <use xlink:href="#DejaVuSans-6f" x="751.416016"/>
      <use xlink:href="#DejaVuSans-67" x="812.597656"/>
      <use xlink:href="#DejaVuSans-20" x="876.074219"/>
      <use xlink:href="#DejaVuSans-6c" x="907.861328"/>
      <use xlink:href="#DejaVuSans-69" x="935.644531"/>
      <use xlink:href="#DejaVuSans-6b" x="963.427734"/>
      <use xlink:href="#DejaVuSans-65" x="1017.712891"/>
      <use xlink:href="#DejaVuSans-6c" x="1079.236328"/>
      <use xlink:href="#DejaVuSans-69" x="1107.019531"/>
      <use xlink:href="#DejaVuSans-68" x="1134.802734"/>
      <use xlink:href="#DejaVuSans-6f" x="1198.181641"/>
      <use xlink:href="#DejaVuSans-6f" x="1259.363281"/>
      <use xlink:href="#DejaVuSans-64" x="1320.544922"/>
     </g>
    </g>
   </g>
   <g id="line2d_51">
    <path d="M 66.124456 372.05401 
L 70.437691 316.452854 
L 74.750925 301.15837 
L 79.06416 283.732948 
L 83.377394 273.655401 
L 87.690629 267.984774 
L 92.003863 262.433591 
L 96.317098 259.927253 
L 100.630333 256.280165 
L 104.943567 254.667156 
L 109.256802 252.821278 
L 113.570036 251.568611 
L 117.883271 250.161368 
L 122.196506 249.548083 
L 126.50974 248.468561 
L 130.822975 248.094166 
L 135.136209 247.314261 
L 139.449444 247.310748 
L 143.762679 246.15996 
L 148.075913 246.37476 
L 152.389148 246.156949 
L 156.702382 245.157224 
L 161.015617 245.054843 
L 165.328851 245.244549 
L 169.642086 244.411947 
L 173.955321 244.64883 
L 178.268555 244.700522 
L 182.58179 244.095267 
L 186.895024 244.126885 
L 191.208259 243.749479 
L 195.521494 243.524641 
L 199.834728 243.69327 
L 204.147963 243.887995 
L 208.461197 243.296291 
L 212.774432 243.344972 
L 217.087666 242.85314 
L 221.400901 242.919888 
L 225.714136 242.610736 
L 230.02737 242.830555 
L 234.340605 242.640347 
L 238.653839 242.521905 
L 242.967074 242.274986 
L 247.280309 242.818511 
L 251.593543 242.351772 
L 255.906778 242.406475 
L 260.220012 242.21978 
L 264.533247 242.18766 
L 268.846481 242.175113 
L 273.159716 241.856928 
L 277.472951 242.168589 
" clip-path="url(#pc8e5f26e7b)" style="fill: none; stroke: #1f77b4; stroke-width: 1.5; stroke-linecap: square"/>
   </g>
   <g id="patch_13">
    <path d="M 55.557031 382.558281 
L 55.557031 231.618281 
" style="fill: none; stroke: #000000; stroke-width: 0.8; stroke-linejoin: miter; stroke-linecap: square"/>
   </g>
   <g id="patch_14">
    <path d="M 288.040375 382.558281 
L 288.040375 231.618281 
" style="fill: none; stroke: #000000; stroke-width: 0.8; stroke-linejoin: miter; stroke-linecap: square"/>
   </g>
   <g id="patch_15">
    <path d="M 55.557031 382.558281 
L 288.040375 382.558281 
" style="fill: none; stroke: #000000; stroke-width: 0.8; stroke-linejoin: miter; stroke-linecap: square"/>
   </g>
   <g id="patch_16">
    <path d="M 55.557031 231.618281 
L 288.040375 231.618281 
" style="fill: none; stroke: #000000; stroke-width: 0.8; stroke-linejoin: miter; stroke-linecap: square"/>
   </g>
   <g id="text_35">
    <!-- MNIST -->
    <g transform="translate(154.46511 225.618281) scale(0.11 -0.11)">
     <use xlink:href="#DejaVuSans-4d"/>
     <use xlink:href="#DejaVuSans-4e" x="86.279297"/>
     <use xlink:href="#DejaVuSans-49" x="161.083984"/>
     <use xlink:href="#DejaVuSans-53" x="190.576172"/>
     <use xlink:href="#DejaVuSans-54" x="254.052734"/>
    </g>
   </g>
  </g>
  <g id="axes_4">
   <g id="patch_17">
    <path d="M 325.847235 382.558281 
L 558.330579 382.558281 
L 558.330579 231.618281 
L 325.847235 231.618281 
z
" style="fill: #ffffff"/>
   </g>
   <g id="PolyCollection_4">
    <path d="M 336.41466 356.268903 
L 336.41466 347.176619 
L 337.687843 313.444572 
L 338.961027 305.305052 
L 340.234211 281.794511 
L 341.507394 270.148507 
L 342.780578 263.196679 
L 344.053762 257.919574 
L 345.326946 259.452565 
L 346.600129 250.62386 
L 347.873313 248.062846 
L 349.146497 247.389904 
L 350.41968 247.637919 
L 351.692864 244.098565 
L 352.966048 242.754474 
L 354.239231 241.586345 
L 355.512415 241.368419 
L 356.785599 240.95099 
L 358.058783 241.020062 
L 359.331966 240.376048 
L 360.60515 240.33889 
L 361.878334 239.501376 
L 363.151517 239.623892 
L 364.424701 239.185267 
L 365.697885 238.602691 
L 366.971068 238.465967 
L 368.244252 239.835286 
L 369.517436 238.413033 
L 370.79062 237.81116 
L 372.063803 237.844019 
L 373.336987 237.977186 
L 374.610171 237.834986 
L 375.883354 237.681802 
L 377.156538 237.726621 
L 378.429722 237.536441 
L 379.702906 237.341556 
L 380.976089 237.302207 
L 382.249273 237.237727 
L 383.522457 237.360211 
L 384.79564 237.034028 
L 386.068824 236.891706 
L 387.342008 236.875768 
L 388.615191 236.877857 
L 389.888375 236.741337 
L 391.161559 236.822731 
L 392.434743 236.742893 
L 393.707926 236.649032 
L 394.98111 236.588823 
L 396.254294 236.580382 
L 397.527477 236.571065 
L 398.800661 236.338267 
L 400.073845 236.352701 
L 401.347028 236.433222 
L 402.620212 236.30194 
L 403.893396 236.286007 
L 405.16658 236.305919 
L 406.439763 236.30375 
L 407.712947 236.502246 
L 408.986131 236.234664 
L 410.259314 236.299327 
L 411.532498 236.113639 
L 412.805682 236.104792 
L 414.078865 236.095911 
L 415.352049 236.01232 
L 416.625233 236.004401 
L 417.898417 235.999276 
L 419.1716 236.027373 
L 420.444784 236.120801 
L 421.717968 236.051022 
L 422.991151 235.889222 
L 424.264335 235.952121 
L 425.537519 235.865824 
L 426.810703 235.930088 
L 428.083886 235.89878 
L 429.35707 235.893877 
L 430.630254 235.908316 
L 431.903437 235.845192 
L 433.176621 235.840104 
L 434.449805 235.85068 
L 435.722988 235.793413 
L 436.996172 235.822937 
L 438.269356 235.722675 
L 439.54254 235.76402 
L 440.815723 235.773729 
L 442.088907 235.767198 
L 443.362091 235.73698 
L 444.635274 235.708629 
L 445.908458 235.745363 
L 447.181642 235.759665 
L 448.454825 235.653054 
L 449.728009 235.675358 
L 451.001193 235.659927 
L 452.274377 235.66249 
L 453.54756 235.634588 
L 454.820744 235.61761 
L 456.093928 235.619323 
L 457.367111 235.597609 
L 458.640295 235.616321 
L 459.913479 235.566687 
L 461.186662 235.587864 
L 462.459846 235.567054 
L 463.73303 235.538809 
L 465.006214 235.587896 
L 466.279397 235.538133 
L 467.552581 235.578396 
L 468.825765 235.544411 
L 470.098948 235.474423 
L 471.372132 235.578899 
L 472.645316 235.514096 
L 473.9185 235.506594 
L 475.191683 235.516206 
L 476.464867 235.532777 
L 477.738051 235.455707 
L 479.011234 235.504434 
L 480.284418 235.52339 
L 481.557602 235.500701 
L 482.830785 235.474308 
L 484.103969 235.435312 
L 485.377153 235.426835 
L 486.650337 235.457224 
L 487.92352 235.473742 
L 489.196704 235.429061 
L 490.469888 235.401021 
L 491.743071 235.430321 
L 493.016255 235.398881 
L 494.289439 235.430824 
L 495.562622 235.413086 
L 496.835806 235.437942 
L 498.10899 235.404903 
L 499.382174 235.381452 
L 500.655357 235.3873 
L 501.928541 235.361039 
L 503.201725 235.426133 
L 504.474908 235.386331 
L 505.748092 235.363301 
L 507.021276 235.370074 
L 508.294459 235.339728 
L 509.567643 235.348189 
L 510.840827 235.336005 
L 512.114011 235.326862 
L 513.387194 235.355837 
L 514.660378 235.347235 
L 515.933562 235.327117 
L 517.206745 235.341771 
L 518.479929 235.340442 
L 519.753113 235.310202 
L 521.026297 235.32999 
L 522.29948 235.310522 
L 523.572664 235.287836 
L 524.845848 235.310676 
L 526.119031 235.294994 
L 527.392215 235.293351 
L 528.665399 235.299328 
L 529.938582 235.289047 
L 531.211766 235.28158 
L 532.48495 235.274652 
L 533.758134 235.298337 
L 535.031317 235.282568 
L 536.304501 235.279192 
L 537.577685 235.28269 
L 538.850868 235.271 
L 540.124052 235.273498 
L 541.397236 235.251745 
L 542.670419 235.259992 
L 543.943603 235.239717 
L 545.216787 235.261829 
L 546.489971 235.255043 
L 547.763154 235.241817 
L 547.763154 235.274869 
L 547.763154 235.274869 
L 546.489971 235.275696 
L 545.216787 235.288985 
L 543.943603 235.262917 
L 542.670419 235.298851 
L 541.397236 235.274978 
L 540.124052 235.308431 
L 538.850868 235.293866 
L 537.577685 235.312288 
L 536.304501 235.302738 
L 535.031317 235.318433 
L 533.758134 235.322738 
L 532.48495 235.300251 
L 531.211766 235.310387 
L 529.938582 235.313962 
L 528.665399 235.324759 
L 527.392215 235.325717 
L 526.119031 235.325078 
L 524.845848 235.334489 
L 523.572664 235.318183 
L 522.29948 235.337654 
L 521.026297 235.364358 
L 519.753113 235.334963 
L 518.479929 235.366955 
L 517.206745 235.368637 
L 515.933562 235.363217 
L 514.660378 235.374214 
L 513.387194 235.384683 
L 512.114011 235.354438 
L 510.840827 235.356336 
L 509.567643 235.382294 
L 508.294459 235.376703 
L 507.021276 235.423645 
L 505.748092 235.395286 
L 504.474908 235.423447 
L 503.201725 235.466956 
L 501.928541 235.381488 
L 500.655357 235.41746 
L 499.382174 235.417285 
L 498.10899 235.503242 
L 496.835806 235.482247 
L 495.562622 235.461936 
L 494.289439 235.465276 
L 493.016255 235.429968 
L 491.743071 235.482842 
L 490.469888 235.435858 
L 489.196704 235.462021 
L 487.92352 235.513698 
L 486.650337 235.498096 
L 485.377153 235.451197 
L 484.103969 235.471829 
L 482.830785 235.506106 
L 481.557602 235.537931 
L 480.284418 235.590522 
L 479.011234 235.547246 
L 477.738051 235.508647 
L 476.464867 235.600206 
L 475.191683 235.556553 
L 473.9185 235.543078 
L 472.645316 235.549628 
L 471.372132 235.624346 
L 470.098948 235.531085 
L 468.825765 235.594594 
L 467.552581 235.640908 
L 466.279397 235.579793 
L 465.006214 235.644457 
L 463.73303 235.581125 
L 462.459846 235.616115 
L 461.186662 235.629433 
L 459.913479 235.596407 
L 458.640295 235.684286 
L 457.367111 235.644782 
L 456.093928 235.666228 
L 454.820744 235.673964 
L 453.54756 235.683083 
L 452.274377 235.709383 
L 451.001193 235.767151 
L 449.728009 235.733653 
L 448.454825 235.711793 
L 447.181642 235.821989 
L 445.908458 235.828262 
L 444.635274 235.784696 
L 443.362091 235.786457 
L 442.088907 235.82349 
L 440.815723 235.877184 
L 439.54254 235.81663 
L 438.269356 235.776673 
L 436.996172 235.88017 
L 435.722988 235.850473 
L 434.449805 235.913655 
L 433.176621 235.922224 
L 431.903437 235.911113 
L 430.630254 236.09792 
L 429.35707 236.047116 
L 428.083886 235.992026 
L 426.810703 236.04704 
L 425.537519 235.929627 
L 424.264335 236.041067 
L 422.991151 235.951397 
L 421.717968 236.211168 
L 420.444784 236.768726 
L 419.1716 236.115372 
L 417.898417 236.112353 
L 416.625233 236.152396 
L 415.352049 236.104328 
L 414.078865 236.19338 
L 412.805682 236.23067 
L 411.532498 236.258962 
L 410.259314 236.780911 
L 408.986131 236.336678 
L 407.712947 237.135067 
L 406.439763 236.488415 
L 405.16658 236.460148 
L 403.893396 236.379687 
L 402.620212 236.451079 
L 401.347028 236.60787 
L 400.073845 236.48664 
L 398.800661 236.446871 
L 397.527477 237.165618 
L 396.254294 236.754805 
L 394.98111 236.827668 
L 393.707926 236.799578 
L 392.434743 237.069071 
L 391.161559 236.980199 
L 389.888375 236.942149 
L 388.615191 237.089687 
L 387.342008 237.239325 
L 386.068824 237.071822 
L 384.79564 237.67829 
L 383.522457 237.783715 
L 382.249273 237.630171 
L 380.976089 237.67008 
L 379.702906 237.701996 
L 378.429722 238.323152 
L 377.156538 238.821537 
L 375.883354 237.851575 
L 374.610171 238.304651 
L 373.336987 238.782761 
L 372.063803 238.49235 
L 370.79062 238.255203 
L 369.517436 238.846777 
L 368.244252 241.269851 
L 366.971068 239.789552 
L 365.697885 238.941177 
L 364.424701 240.061947 
L 363.151517 240.802716 
L 361.878334 240.848949 
L 360.60515 241.804113 
L 359.331966 241.199842 
L 358.058783 241.986158 
L 356.785599 242.195753 
L 355.512415 242.227999 
L 354.239231 242.551089 
L 352.966048 244.017777 
L 351.692864 246.49693 
L 350.41968 250.368186 
L 349.146497 249.975816 
L 347.873313 251.30433 
L 346.600129 253.204939 
L 345.326946 264.147898 
L 344.053762 263.030013 
L 342.780578 266.624963 
L 341.507394 274.738264 
L 340.234211 290.647926 
L 338.961027 314.404491 
L 337.687843 321.58806 
L 336.41466 356.268903 
z
" clip-path="url(#p4a7b4614dc)" style="fill: #1f77b4; fill-opacity: 0.3"/>
   </g>
   <g id="matplotlib.axis_7">
    <g id="xtick_19">
     <g id="line2d_52">
      <g>
       <use xlink:href="#m25fa12604d" x="335.141476" y="382.558281" style="stroke: #000000; stroke-width: 0.8"/>
      </g>
     </g>
     <g id="text_36">
      <!-- 0 -->
      <g transform="translate(331.642101 397.916562) scale(0.11 -0.11)">
       <use xlink:href="#DejaVuSans-30"/>
      </g>
     </g>
    </g>
    <g id="xtick_20">
     <g id="line2d_53">
      <g>
       <use xlink:href="#m25fa12604d" x="377.580933" y="382.558281" style="stroke: #000000; stroke-width: 0.8"/>
      </g>
     </g>
     <g id="text_37">
      <!-- 100 -->
      <g transform="translate(367.082808 397.916562) scale(0.11 -0.11)">
       <use xlink:href="#DejaVuSans-31"/>
       <use xlink:href="#DejaVuSans-30" x="63.623047"/>
       <use xlink:href="#DejaVuSans-30" x="127.246094"/>
      </g>
     </g>
    </g>
    <g id="xtick_21">
     <g id="line2d_54">
      <g>
       <use xlink:href="#m25fa12604d" x="420.020389" y="382.558281" style="stroke: #000000; stroke-width: 0.8"/>
      </g>
     </g>
     <g id="text_38">
      <!-- 200 -->
      <g transform="translate(409.522264 397.916562) scale(0.11 -0.11)">
       <use xlink:href="#DejaVuSans-32"/>
       <use xlink:href="#DejaVuSans-30" x="63.623047"/>
       <use xlink:href="#DejaVuSans-30" x="127.246094"/>
      </g>
     </g>
    </g>
    <g id="xtick_22">
     <g id="line2d_55">
      <g>
       <use xlink:href="#m25fa12604d" x="462.459846" y="382.558281" style="stroke: #000000; stroke-width: 0.8"/>
      </g>
     </g>
     <g id="text_39">
      <!-- 300 -->
      <g transform="translate(451.961721 397.916562) scale(0.11 -0.11)">
       <use xlink:href="#DejaVuSans-33"/>
       <use xlink:href="#DejaVuSans-30" x="63.623047"/>
       <use xlink:href="#DejaVuSans-30" x="127.246094"/>
      </g>
     </g>
    </g>
    <g id="xtick_23">
     <g id="line2d_56">
      <g>
       <use xlink:href="#m25fa12604d" x="504.899303" y="382.558281" style="stroke: #000000; stroke-width: 0.8"/>
      </g>
     </g>
     <g id="text_40">
      <!-- 400 -->
      <g transform="translate(494.401178 397.916562) scale(0.11 -0.11)">
       <use xlink:href="#DejaVuSans-34"/>
       <use xlink:href="#DejaVuSans-30" x="63.623047"/>
       <use xlink:href="#DejaVuSans-30" x="127.246094"/>
      </g>
     </g>
    </g>
    <g id="xtick_24">
     <g id="line2d_57">
      <g>
       <use xlink:href="#m25fa12604d" x="547.33876" y="382.558281" style="stroke: #000000; stroke-width: 0.8"/>
      </g>
     </g>
     <g id="text_41">
      <!-- 500 -->
      <g transform="translate(536.840635 397.916562) scale(0.11 -0.11)">
       <use xlink:href="#DejaVuSans-35"/>
       <use xlink:href="#DejaVuSans-30" x="63.623047"/>
       <use xlink:href="#DejaVuSans-30" x="127.246094"/>
      </g>
     </g>
    </g>
    <g id="text_42">
     <!-- Number of labels -->
     <g transform="translate(395.029532 412.5625) scale(0.11 -0.11)">
      <use xlink:href="#DejaVuSans-4e"/>
      <use xlink:href="#DejaVuSans-75" x="74.804688"/>
      <use xlink:href="#DejaVuSans-6d" x="138.183594"/>
      <use xlink:href="#DejaVuSans-62" x="235.595703"/>
      <use xlink:href="#DejaVuSans-65" x="299.072266"/>
      <use xlink:href="#DejaVuSans-72" x="360.595703"/>
      <use xlink:href="#DejaVuSans-20" x="401.708984"/>
      <use xlink:href="#DejaVuSans-6f" x="433.496094"/>
      <use xlink:href="#DejaVuSans-66" x="494.677734"/>
      <use xlink:href="#DejaVuSans-20" x="529.882812"/>
      <use xlink:href="#DejaVuSans-6c" x="561.669922"/>
      <use xlink:href="#DejaVuSans-61" x="589.453125"/>
      <use xlink:href="#DejaVuSans-62" x="650.732422"/>
      <use xlink:href="#DejaVuSans-65" x="714.208984"/>
      <use xlink:href="#DejaVuSans-6c" x="775.732422"/>
      <use xlink:href="#DejaVuSans-73" x="803.515625"/>
     </g>
    </g>
   </g>
   <g id="matplotlib.axis_8">
    <g id="ytick_16">
     <g id="line2d_58">
      <path d="M 325.847235 335.003469 
L 558.330579 335.003469 
" clip-path="url(#p4a7b4614dc)" style="fill: none; stroke: #b0b0b0; stroke-width: 0.8; stroke-linecap: square"/>
     </g>
     <g id="line2d_59">
      <g>
       <use xlink:href="#me2fbff8e5a" x="325.847235" y="335.003469" style="stroke: #000000; stroke-width: 0.8"/>
      </g>
     </g>
    </g>
    <g id="ytick_17">
     <g id="line2d_60">
      <path d="M 325.847235 284.816485 
L 558.330579 284.816485 
" clip-path="url(#p4a7b4614dc)" style="fill: none; stroke: #b0b0b0; stroke-width: 0.8; stroke-linecap: square"/>
     </g>
     <g id="line2d_61">
      <g>
       <use xlink:href="#me2fbff8e5a" x="325.847235" y="284.816485" style="stroke: #000000; stroke-width: 0.8"/>
      </g>
     </g>
    </g>
    <g id="ytick_18">
     <g id="line2d_62">
      <path d="M 325.847235 234.6295 
L 558.330579 234.6295 
" clip-path="url(#p4a7b4614dc)" style="fill: none; stroke: #b0b0b0; stroke-width: 0.8; stroke-linecap: square"/>
     </g>
     <g id="line2d_63">
      <g>
       <use xlink:href="#me2fbff8e5a" x="325.847235" y="234.6295" style="stroke: #000000; stroke-width: 0.8"/>
      </g>
     </g>
    </g>
   </g>
   <g id="line2d_64">
    <path d="M 336.41466 351.722761 
L 337.687843 317.516316 
L 338.961027 309.854771 
L 340.234211 286.221218 
L 341.507394 272.443386 
L 342.780578 264.910821 
L 344.053762 260.474793 
L 345.326946 261.800232 
L 346.600129 251.9144 
L 347.873313 249.683588 
L 349.146497 248.68286 
L 350.41968 249.003053 
L 351.692864 245.297748 
L 352.966048 243.386125 
L 354.239231 242.068717 
L 356.785599 241.573371 
L 358.058783 241.50311 
L 359.331966 240.787945 
L 360.60515 241.071502 
L 361.878334 240.175162 
L 363.151517 240.213304 
L 364.424701 239.623607 
L 365.697885 238.771934 
L 366.971068 239.12776 
L 368.244252 240.552568 
L 369.517436 238.629905 
L 370.79062 238.033182 
L 373.336987 238.379974 
L 375.883354 237.766689 
L 377.156538 238.274079 
L 379.702906 237.521776 
L 382.249273 237.433949 
L 383.522457 237.571963 
L 384.79564 237.356159 
L 386.068824 236.981764 
L 387.342008 237.057547 
L 391.161559 236.901465 
L 392.434743 236.905982 
L 393.707926 236.724305 
L 396.254294 236.667594 
L 397.527477 236.868342 
L 398.800661 236.392569 
L 402.620212 236.376509 
L 405.16658 236.383034 
L 406.439763 236.396082 
L 407.712947 236.818657 
L 408.986131 236.285671 
L 410.259314 236.540119 
L 411.532498 236.186301 
L 419.1716 236.071372 
L 420.444784 236.444764 
L 422.991151 235.92031 
L 424.264335 235.996594 
L 425.537519 235.897725 
L 426.810703 235.988564 
L 429.35707 235.970497 
L 430.630254 236.003118 
L 431.903437 235.878152 
L 436.996172 235.851553 
L 438.269356 235.749674 
L 442.088907 235.795344 
L 445.908458 235.786812 
L 447.181642 235.790827 
L 448.454825 235.682423 
L 452.274377 235.685936 
L 459.913479 235.581547 
L 465.006214 235.616176 
L 467.552581 235.609652 
L 470.098948 235.502754 
L 471.372132 235.601622 
L 473.9185 235.524836 
L 481.557602 235.519316 
L 486.650337 235.47766 
L 491.743071 235.456582 
L 495.562622 235.437511 
L 499.382174 235.399369 
L 518.479929 235.353698 
L 523.572664 235.30301 
L 529.938582 235.301504 
L 547.763154 235.258343 
L 547.763154 235.258343 
" clip-path="url(#p4a7b4614dc)" style="fill: none; stroke: #1f77b4; stroke-width: 1.5; stroke-linecap: square"/>
   </g>
   <g id="patch_18">
    <path d="M 325.847235 382.558281 
L 325.847235 231.618281 
" style="fill: none; stroke: #000000; stroke-width: 0.8; stroke-linejoin: miter; stroke-linecap: square"/>
   </g>
   <g id="patch_19">
    <path d="M 558.330579 382.558281 
L 558.330579 231.618281 
" style="fill: none; stroke: #000000; stroke-width: 0.8; stroke-linejoin: miter; stroke-linecap: square"/>
   </g>
   <g id="patch_20">
    <path d="M 325.847235 382.558281 
L 558.330579 382.558281 
" style="fill: none; stroke: #000000; stroke-width: 0.8; stroke-linejoin: miter; stroke-linecap: square"/>
   </g>
   <g id="patch_21">
    <path d="M 325.847235 231.618281 
L 558.330579 231.618281 
" style="fill: none; stroke: #000000; stroke-width: 0.8; stroke-linejoin: miter; stroke-linecap: square"/>
   </g>
   <g id="text_43">
    <!-- dSprites -->
    <g transform="translate(419.419454 225.618281) scale(0.11 -0.11)">
     <use xlink:href="#DejaVuSans-64"/>
     <use xlink:href="#DejaVuSans-53" x="63.476562"/>
     <use xlink:href="#DejaVuSans-70" x="126.953125"/>
     <use xlink:href="#DejaVuSans-72" x="190.429688"/>
     <use xlink:href="#DejaVuSans-69" x="231.542969"/>
     <use xlink:href="#DejaVuSans-74" x="259.326172"/>
     <use xlink:href="#DejaVuSans-65" x="298.535156"/>
     <use xlink:href="#DejaVuSans-73" x="360.058594"/>
    </g>
   </g>
  </g>
 </g>
 <defs>
  <clipPath id="pccc1f510cb">
   <rect x="55.557031" y="21.558281" width="232.483344" height="150.94"/>
  </clipPath>
  <clipPath id="p09849df11e">
   <rect x="325.847235" y="21.558281" width="232.483344" height="150.94"/>
  </clipPath>
  <clipPath id="pc8e5f26e7b">
   <rect x="55.557031" y="231.618281" width="232.483344" height="150.94"/>
  </clipPath>
  <clipPath id="p4a7b4614dc">
   <rect x="325.847235" y="231.618281" width="232.483344" height="150.94"/>
  </clipPath>
 </defs>
</svg>
